<svg width="61" height="61" viewBox="0 0 61 61" fill="none" xmlns="http://www.w3.org/2000/svg">
<path d="M18.5922 24.5912L18.9667 24.4945L18.9672 24.1077L18.9778 14.733H23.3637L23.353 24.028L23.3525 24.4507L23.7693 24.5215C24.729 24.6845 25.6 25.1818 26.2282 25.9254C26.8564 26.669 27.2012 27.6107 27.2017 28.5841C27.2017 28.5842 27.2017 28.5842 27.2017 28.5843L27.2017 48.6344C27.2017 48.6346 27.2017 48.6348 27.2017 48.635C27.2002 49.4588 26.8724 50.2484 26.2899 50.8308C25.7073 51.4135 24.9174 51.7413 24.0935 51.7426H18.6082C17.7842 51.7413 16.9944 51.4135 16.4118 50.8308C15.8293 50.2483 15.5014 49.4586 15.5 48.6348L15.5 28.5953L15.5 28.594C15.4976 27.6781 15.8002 26.7875 16.3601 26.0627C16.9201 25.3379 17.7054 24.8202 18.5922 24.5912ZM41.1711 8.51683L42.0027 20.937L42.029 21.3304L42.4177 21.3965C43.524 21.5848 44.5279 22.1585 45.2516 23.016C45.9754 23.8736 46.3723 24.9596 46.372 26.0818V26.0819V48.8933V48.894C46.3726 49.3669 46.2801 49.8353 46.0997 50.2724C45.9194 50.7096 45.6547 51.1069 45.3207 51.4418C44.9868 51.7766 44.5902 52.0424 44.1535 52.224C43.7168 52.4056 43.2487 52.4994 42.7758 52.5H36.5441C35.5884 52.4987 34.6723 52.1181 33.997 51.4419C33.3217 50.7656 32.9424 49.849 32.9424 48.8933V26.0819V26.0817C32.9418 25.0292 33.2904 24.0062 33.9334 23.173C34.5765 22.3398 35.4777 21.7433 36.496 21.4771L36.8325 21.3892L36.8671 21.0431L38.1181 8.51683H41.1711Z" stroke="#070707"/>
</svg>
