<svg width="61" height="61" viewBox="0 0 61 61" fill="none" xmlns="http://www.w3.org/2000/svg">
<path d="M21.7505 12.2639V16.0144C20.6594 16.3959 19.7132 17.1058 19.0417 18.0465C18.3702 18.9873 18.0063 20.1129 18 21.2687V49.0502C18 51.2365 24.0032 53 31.4076 53C38.812 53 44.8092 51.2365 44.8092 49.0502V21.2687C44.8051 20.1165 44.4456 18.9936 43.7798 18.0533C43.114 17.1129 42.1743 16.4009 41.0888 16.0144V12.2639M21.7505 12.2639H21.9921M21.7505 12.2639V11.8471C21.7578 11.9301 21.7832 12.0104 21.8249 12.0824C21.8667 12.1544 21.9237 12.2164 21.9921 12.2639M21.9921 12.2639C22.9705 13.0973 26.8236 13.7133 31.4197 13.7133C36.0157 13.7133 39.8749 13.1094 40.8473 12.2639M40.8473 12.2639H41.0888M40.8473 12.2639C40.9156 12.2164 40.9727 12.1544 41.0144 12.0824C41.0562 12.0104 41.0816 11.9301 41.0888 11.8471V12.2639M41.0888 9.86619V13.7375C41.0824 13.8198 41.0573 13.8996 41.0155 13.9707C40.9736 14.0419 40.9161 14.1026 40.8473 14.1482C39.8689 14.9877 36.0157 15.6037 31.4197 15.6037C26.8236 15.6037 22.9644 14.9997 21.9921 14.1482C21.9233 14.1026 21.8658 14.0419 21.8239 13.9707C21.782 13.8996 21.7569 13.8198 21.7505 13.7375V9.86619C21.7505 10.8929 26.0808 11.7324 31.4136 11.7324C36.7465 11.7324 41.0888 10.8929 41.0888 9.86619ZM41.0888 9.86619C41.0888 10.8929 36.7586 11.7324 31.4257 11.7324C26.0929 11.7324 21.7626 10.8929 21.7626 9.86619C21.7626 9.52194 22.2518 9.19581 23.0973 8.918C24.7763 8.36841 27.8806 8 31.4318 8C34.983 8 38.0752 8.36841 39.7662 8.918C40.5815 9.19581 41.0888 9.52194 41.0888 9.86619ZM44.8092 49.479C39.7239 42.4128 29.4025 41.1566 21.7384 46.6707M39.7541 8.918C38.0752 9.47363 34.9709 9.84203 31.4197 9.84203C27.8685 9.84203 24.7763 9.47363 23.0852 8.918C24.7642 8.36841 27.8685 8 31.4197 8C34.9709 8 38.0752 8.36841 39.7541 8.918Z" stroke="#070707" stroke-miterlimit="10" stroke-linecap="round"/>
</svg>
