<svg width="61" height="61" viewBox="0 0 61 61" fill="none" xmlns="http://www.w3.org/2000/svg">
<path d="M27.6321 34.8243C27.6714 36.4663 27.3821 38.0996 26.7809 39.6281C26.1798 41.1566 25.279 42.5494 24.1316 43.7246C22.9842 44.8999 21.6134 45.8338 20.0998 46.4714C18.5861 47.109 16.9603 47.4375 15.3178 47.4375M15.3178 47.4375C13.6753 47.4375 12.0495 47.109 10.5358 46.4714C9.02221 45.8338 7.65138 44.8999 6.50399 43.7246C5.35661 42.5494 4.45585 41.1566 3.8547 39.6281C3.25355 38.0996 2.96416 36.4663 3.00354 34.8243M15.3178 47.4375L15.3143 52.6175M12.5801 53H18.0555M50.3552 30.6948H41.494M50.3552 30.6948V19.9141M50.3552 30.6948H57.1764M50.3552 30.6948V41.4684M41.494 30.6948V36.7297M41.494 30.6948V19.7724H57.1693M41.494 36.7297H35.1262V8H57.1693V19.7724M41.494 36.7297V41.6101H58.253V30.6948M57.1693 19.7724H58.253V30.6948M57.1693 30.6948H58.253M39.2628 17.2437L48.5135 11.5416M46.1477 16.5566L49.8735 14.3962M24.8058 35.9931C24.8058 41.2351 20.5563 45.4847 15.3143 45.4847C10.0722 45.4847 5.82268 41.2351 5.82268 35.9931C5.82268 30.751 10.0722 26.5015 15.3143 26.5015C20.5563 26.5015 24.8058 30.751 24.8058 35.9931Z" stroke="#070707" stroke-miterlimit="10" stroke-linecap="round"/>
</svg>
