<svg width="61" height="61" viewBox="0 0 61 61" fill="none" xmlns="http://www.w3.org/2000/svg">
<path d="M34.8043 10.2882C34.8043 9.02644 32.9541 8 30.6658 8C28.3776 8 26.5274 9.02644 26.5274 10.2882M18.3616 46.7956H43.5193M40.1392 53H21.8986C21.7083 53 21.5199 52.9624 21.3442 52.8894C21.1684 52.8164 21.0089 52.7094 20.8746 52.5745C20.7403 52.4396 20.6341 52.2796 20.5618 52.1035C20.4896 51.9275 20.4529 51.7389 20.4537 51.5486L11 30.0195C11 26.5152 12.3921 23.1544 14.87 20.6765C17.3479 18.1986 20.7087 16.8065 24.213 16.8065H37.1187C40.623 16.8065 43.9838 18.1986 46.4617 20.6765C48.9396 23.1544 50.3317 26.5152 50.3317 30.0195L41.584 51.5486C41.5849 51.7389 41.5482 51.9275 41.4759 52.1035C41.4037 52.2796 41.2974 52.4396 41.1632 52.5745C41.0289 52.7094 40.8693 52.8164 40.6936 52.8894C40.5179 52.9624 40.3295 53 40.1392 53ZM25.344 12.9426H35.9811V16.8065H25.344V12.9426ZM23.2715 10.2882H38.0601C38.5079 10.2882 38.8708 10.6512 38.8708 11.0989V12.1319C38.8708 12.5797 38.5079 12.9426 38.0601 12.9426H23.2715C22.8238 12.9426 22.4608 12.5797 22.4608 12.1319V11.0989C22.4608 10.6512 22.8238 10.2882 23.2715 10.2882ZM31.4831 29.7841C31.6361 29.6153 31.8376 29.4979 32.06 29.448C32.2824 29.3982 32.5147 29.4183 32.7252 29.5056C32.9357 29.593 33.114 29.7433 33.2357 29.9359C33.3575 30.1286 33.4167 30.3541 33.4052 30.5817C33.3964 30.7385 33.4212 30.8954 33.4778 31.0419C33.5344 31.1884 33.6217 31.3211 33.7336 31.4313C33.8456 31.5414 33.9798 31.6264 34.1272 31.6805C34.2746 31.7347 34.4319 31.7569 34.5885 31.7455C34.8175 31.7282 35.0462 31.7827 35.2427 31.9014C35.4393 32.0202 35.594 32.1971 35.6853 32.4078C35.7766 32.6185 35.8 32.8524 35.7523 33.077C35.7045 33.3016 35.588 33.5057 35.4189 33.661C35.305 33.7646 35.2141 33.8908 35.1519 34.0315C35.0897 34.1722 35.0575 34.3244 35.0575 34.4783C35.0575 34.6321 35.0897 34.7843 35.1519 34.925C35.2141 35.0658 35.305 35.192 35.4189 35.2955C35.5877 35.4486 35.7051 35.6501 35.7549 35.8724C35.8048 36.0948 35.7847 36.3271 35.6973 36.5376C35.61 36.7481 35.4597 36.9264 35.267 37.0482C35.0744 37.1699 34.8488 37.2291 34.6212 37.2176C34.4664 37.2102 34.3118 37.2351 34.1672 37.291C34.0226 37.3468 33.8913 37.4323 33.7817 37.5419C33.6722 37.6515 33.5867 37.7828 33.5309 37.9273C33.475 38.0719 33.45 38.2266 33.4575 38.3814V38.4141C33.4675 38.6411 33.4073 38.8657 33.285 39.0572C33.1627 39.2488 32.9843 39.398 32.7742 39.4845C32.564 39.571 32.3323 39.5906 32.1106 39.5406C31.889 39.4906 31.6881 39.3734 31.5354 39.2051C31.4329 39.0895 31.3071 38.9969 31.1662 38.9335C31.0254 38.8701 30.8726 38.8373 30.7181 38.8373C30.5637 38.8373 30.4109 38.8701 30.2701 38.9335C30.1292 38.9969 30.0034 39.0895 29.9009 39.2051C29.7482 39.3734 29.5473 39.4906 29.3256 39.5406C29.104 39.5906 28.8722 39.571 28.6621 39.4845C28.4519 39.398 28.2736 39.2488 28.1513 39.0572C28.029 38.8657 27.9688 38.6411 27.9788 38.4141V38.4337C27.9874 38.2723 27.9608 38.111 27.9007 37.961C27.8406 37.811 27.7486 37.6759 27.6309 37.5651C27.5133 37.4544 27.3729 37.3706 27.2196 37.3196C27.0663 37.2686 26.9037 37.2516 26.7431 37.2699C26.5155 37.2814 26.29 37.2222 26.0973 37.1005C25.9047 36.9787 25.7544 36.8004 25.667 36.5899C25.5797 36.3794 25.5596 36.1471 25.6094 35.9247C25.6593 35.7024 25.7767 35.5009 25.9455 35.3478C26.0593 35.2443 26.1502 35.1181 26.2125 34.9774C26.2747 34.8366 26.3068 34.6845 26.3068 34.5306C26.3068 34.3767 26.2747 34.2245 26.2125 34.0838C26.1502 33.9431 26.0593 33.8169 25.9455 33.7134C25.757 33.5653 25.6217 33.36 25.5601 33.1284C25.4985 32.8968 25.5138 32.6514 25.6039 32.4293C25.6939 32.2072 25.8537 32.0203 26.0592 31.897C26.2647 31.7736 26.5048 31.7205 26.7431 31.7455C26.8976 31.7539 27.0521 31.7298 27.1967 31.6747C27.3413 31.6196 27.4727 31.5348 27.5824 31.4257C27.6921 31.3166 27.7776 31.1857 27.8335 31.0414C27.8894 30.8972 27.9144 30.7428 27.9069 30.5883C27.8849 30.3576 27.9361 30.1259 28.053 29.9259C28.17 29.7259 28.3469 29.5677 28.5587 29.4737C28.7705 29.3797 29.0065 29.3547 29.2333 29.4022C29.46 29.4497 29.6662 29.5673 29.8225 29.7383C29.9229 29.8594 30.0479 29.9576 30.1893 30.0264C30.3307 30.0952 30.4852 30.133 30.6424 30.1374C30.7996 30.1417 30.9559 30.1124 31.1009 30.0515C31.2459 29.9906 31.3762 29.8994 31.4831 29.7841Z" stroke="#070707" stroke-miterlimit="10"/>
</svg>
