<svg width="61" height="60" viewBox="0 0 61 60" fill="none" xmlns="http://www.w3.org/2000/svg">
<path d="M9 31.8861H53.4257M11.2546 8H51.1711C52.4163 8 53.4257 9.00942 53.4257 10.2546V38.501C53.4257 39.7462 52.4163 40.7556 51.1711 40.7556H11.2546C10.0094 40.7556 9 39.7462 9 38.501V10.2546C9 9.00942 10.0094 8 11.2546 8ZM49.1576 35.9628C49.1576 36.7225 48.5417 37.3383 47.7821 37.3383C47.0225 37.3383 46.4066 36.7225 46.4066 35.9628C46.4066 35.2032 47.0225 34.5874 47.7821 34.5874C48.5417 34.5874 49.1576 35.2032 49.1576 35.9628ZM27.4835 40.9542H34.9351V49.3416H27.4835V40.9542ZM17.4796 49.3416H44.939C45.1341 49.3378 45.328 49.373 45.5094 49.445C45.6907 49.5171 45.8559 49.6246 45.9952 49.7613C46.1345 49.8979 46.2451 50.061 46.3206 50.2409C46.3962 50.4209 46.435 50.6141 46.435 50.8092V53H16.0191V50.8092C16.0191 50.4212 16.1727 50.049 16.4464 49.7739C16.7201 49.4989 17.0916 49.3435 17.4796 49.3416Z" stroke="#070707" stroke-miterlimit="10"/>
</svg>
