<svg width="10" height="10" viewBox="0 0 10 10" fill="none" xmlns="http://www.w3.org/2000/svg">
<path d="M4.16627 7.31262L3.42877 8.02929C3.23539 8.22267 2.9731 8.33132 2.69961 8.33132C2.42612 8.33132 2.16383 8.22267 1.97044 8.02929C1.77705 7.8359 1.66841 7.57361 1.66841 7.30012C1.66841 7.02663 1.77705 6.76434 1.97044 6.57095L3.86211 4.67512C4.04778 4.48885 4.29795 4.38107 4.56086 4.37409C4.82378 4.36711 5.07931 4.46146 5.27461 4.63762L5.32461 4.67929C5.40362 4.75664 5.51012 4.79944 5.62069 4.79827C5.73126 4.7971 5.83683 4.75205 5.91419 4.67304C5.99154 4.59402 6.03434 4.48752 6.03317 4.37695C6.032 4.26638 5.98695 4.16081 5.90794 4.08345C5.88442 4.05305 5.85939 4.02384 5.83294 3.99595C5.47725 3.6865 5.01724 3.52381 4.54609 3.54083C4.07494 3.55785 3.62787 3.75331 3.29544 4.08762L1.37877 5.98345C1.05309 6.33795 0.876948 6.80457 0.887137 7.28585C0.897327 7.76714 1.09306 8.22588 1.43345 8.56627C1.77385 8.90667 2.23259 9.1024 2.71388 9.11259C3.19516 9.12278 3.66178 8.94664 4.01627 8.62095L4.73711 7.91679C4.80828 7.83914 4.84741 7.73742 4.84661 7.63209C4.84581 7.52677 4.80516 7.42565 4.73282 7.34908C4.66048 7.27252 4.56183 7.2262 4.45672 7.21943C4.3516 7.21267 4.24783 7.24596 4.16627 7.31262ZM8.62044 1.37929C8.26993 1.03096 7.79585 0.835449 7.30169 0.835449C6.80753 0.835449 6.33345 1.03096 5.98294 1.37929L5.26211 2.08345C5.19093 2.1611 5.15181 2.26282 5.1526 2.36815C5.1534 2.47348 5.19406 2.57459 5.26639 2.65116C5.33873 2.72772 5.43738 2.77404 5.5425 2.78081C5.64761 2.78757 5.75138 2.75428 5.83294 2.68762L6.55377 1.97095C6.74716 1.77757 7.00945 1.66892 7.28294 1.66892C7.55643 1.66892 7.81872 1.77757 8.01211 1.97095C8.20549 2.16434 8.31414 2.42663 8.31414 2.70012C8.31414 2.97361 8.20549 3.2359 8.01211 3.42929L6.12044 5.32512C5.93477 5.51139 5.6846 5.61917 5.42168 5.62615C5.15877 5.63313 4.90323 5.53878 4.70794 5.36262L4.65794 5.32095C4.57893 5.2436 4.47242 5.2008 4.36185 5.20197C4.25129 5.20314 4.14571 5.24819 4.06836 5.3272C3.991 5.40622 3.9482 5.51272 3.94937 5.62329C3.95055 5.73386 3.99559 5.83943 4.07461 5.91679C4.10487 5.94774 4.13687 5.97695 4.17044 6.00429C4.52655 6.31281 4.98637 6.47489 5.45723 6.45788C5.9281 6.44087 6.37501 6.24603 6.70794 5.91262L8.60377 4.01679C8.95433 3.66849 9.15284 3.19563 9.15596 2.70147C9.15908 2.20732 8.96656 1.73199 8.62044 1.37929Z" fill="#94B9AB"/>
</svg>
