<svg width="28" height="32" viewBox="0 0 28 32" fill="none" xmlns="http://www.w3.org/2000/svg">
<path d="M23.4995 4.09323C20.9799 1.57368 17.5627 0.158203 13.9995 0.158203C10.4363 0.158203 7.01904 1.57368 4.49948 4.09323C1.97993 6.61279 0.564453 10.03 0.564453 13.5932C0.564453 17.1564 1.97993 20.5737 4.49948 23.0932L12.8436 31.4532C12.9908 31.6016 13.166 31.7194 13.3589 31.7998C13.5518 31.8802 13.7588 31.9216 13.9678 31.9216C14.1768 31.9216 14.3838 31.8802 14.5767 31.7998C14.7697 31.7194 14.9448 31.6016 15.092 31.4532L23.4995 23.0141C26.0085 20.505 27.4181 17.102 27.4181 13.5536C27.4181 10.0053 26.0085 6.60231 23.4995 4.09323ZM21.2353 20.7499L13.9995 28.0174L6.76365 20.7499C5.33413 19.3191 4.3609 17.4965 3.967 15.5127C3.57309 13.5288 3.7762 11.4727 4.55063 9.60431C5.32506 7.73587 6.63606 6.13898 8.3179 5.01549C9.99973 3.892 11.9769 3.29235 13.9995 3.29235C16.0221 3.29235 17.9992 3.892 19.6811 5.01549C21.3629 6.13898 22.6739 7.73587 23.4483 9.60431C24.2228 11.4727 24.4259 13.5288 24.032 15.5127C23.6381 17.4965 22.6648 19.3191 21.2353 20.7499ZM9.24948 8.7324C7.97128 10.0145 7.25352 11.7511 7.25352 13.5616C7.25352 15.372 7.97128 17.1086 9.24948 18.3907C10.1991 19.342 11.4085 19.9916 12.7259 20.2581C14.0434 20.5246 15.4102 20.3962 16.6548 19.8888C17.8995 19.3815 18.9667 18.5178 19.7224 17.4063C20.4781 16.2947 20.8888 14.9848 20.9028 13.6407C20.91 12.7433 20.7371 11.8536 20.3944 11.0241C20.0517 10.1946 19.5463 9.4423 18.9078 8.81157C18.2803 8.16965 17.532 7.65817 16.7061 7.30655C15.8801 6.95494 14.9928 6.77014 14.0951 6.76278C13.1975 6.75542 12.3072 6.92565 11.4756 7.26368C10.644 7.60171 9.88744 8.10085 9.24948 8.7324ZM16.6753 16.1424C16.0753 16.7516 15.2823 17.1334 14.4319 17.2226C13.5816 17.3119 12.7266 17.1029 12.0132 16.6315C11.2998 16.1602 10.7723 15.4556 10.5209 14.6384C10.2695 13.8211 10.3098 12.9419 10.6348 12.1511C10.9599 11.3602 11.5496 10.7068 12.3031 10.3026C13.0566 9.89846 13.927 9.76854 14.7657 9.93513C15.6044 10.1017 16.3591 10.5544 16.901 11.2159C17.4428 11.8774 17.738 12.7065 17.7361 13.5616C17.7131 14.5389 17.3031 15.4672 16.5961 16.1424H16.6753Z" fill="#0C3626"/>
</svg>
