<svg width="10" height="10" viewBox="0 0 10 10" fill="none" xmlns="http://www.w3.org/2000/svg">
<g clip-path="url(#clip0_3135_11316)">
<path d="M6.25016 4.58325H5.41683V2.91659C5.41683 2.80608 5.37293 2.7001 5.29479 2.62196C5.21665 2.54382 5.11067 2.49992 5.00016 2.49992C4.88966 2.49992 4.78368 2.54382 4.70554 2.62196C4.6274 2.7001 4.5835 2.80608 4.5835 2.91659V4.99992C4.5835 5.11043 4.6274 5.21641 4.70554 5.29455C4.78368 5.37269 4.88966 5.41659 5.00016 5.41659H6.25016C6.36067 5.41659 6.46665 5.37269 6.54479 5.29455C6.62293 5.21641 6.66683 5.11043 6.66683 4.99992C6.66683 4.88941 6.62293 4.78343 6.54479 4.70529C6.46665 4.62715 6.36067 4.58325 6.25016 4.58325ZM5.00016 0.833252C4.17608 0.833252 3.37049 1.07762 2.68529 1.53546C2.00008 1.9933 1.46603 2.64405 1.15067 3.4054C0.835301 4.16676 0.752788 5.00454 0.913559 5.8128C1.07433 6.62105 1.47117 7.36348 2.05389 7.9462C2.63661 8.52892 3.37903 8.92575 4.18729 9.08652C4.99554 9.2473 5.83332 9.16478 6.59468 8.84942C7.35604 8.53405 8.00678 8 8.46462 7.31479C8.92246 6.62959 9.16683 5.82401 9.16683 4.99992C9.16683 4.45274 9.05906 3.91093 8.84966 3.4054C8.64027 2.89988 8.33335 2.44055 7.94644 2.05364C7.55953 1.66673 7.1002 1.35982 6.59468 1.15042C6.08916 0.941026 5.54734 0.833252 5.00016 0.833252V0.833252ZM5.00016 8.33325C4.34089 8.33325 3.69643 8.13776 3.14826 7.77148C2.6001 7.40521 2.17286 6.88462 1.92057 6.27553C1.66827 5.66644 1.60226 4.99622 1.73088 4.34962C1.8595 3.70301 2.17697 3.10907 2.64314 2.6429C3.10932 2.17672 3.70326 1.85925 4.34986 1.73063C4.99647 1.60202 5.66669 1.66803 6.27578 1.92032C6.88486 2.17261 7.40546 2.59985 7.77173 3.14802C8.138 3.69618 8.3335 4.34065 8.3335 4.99992C8.3335 5.88397 7.98231 6.73182 7.35719 7.35694C6.73207 7.98206 5.88422 8.33325 5.00016 8.33325V8.33325Z" fill="#94B9AB"/>
</g>
<defs>
<clipPath id="clip0_3135_11316">
<rect width="10" height="10" fill="white"/>
</clipPath>
</defs>
</svg>
