<svg width="10" height="10" viewBox="0 0 10 10" fill="none" xmlns="http://www.w3.org/2000/svg">
<path d="M6.25065 4.5835H5.41732V2.91683C5.41732 2.80632 5.37342 2.70034 5.29528 2.6222C5.21714 2.54406 5.11116 2.50016 5.00065 2.50016C4.89015 2.50016 4.78417 2.54406 4.70603 2.6222C4.62789 2.70034 4.58399 2.80632 4.58399 2.91683V5.00016C4.58399 5.11067 4.62789 5.21665 4.70603 5.29479C4.78417 5.37293 4.89015 5.41683 5.00065 5.41683H6.25065C6.36116 5.41683 6.46714 5.37293 6.54528 5.29479C6.62342 5.21665 6.66732 5.11067 6.66732 5.00016C6.66732 4.88966 6.62342 4.78368 6.54528 4.70554C6.46714 4.6274 6.36116 4.5835 6.25065 4.5835ZM5.00065 0.833496C4.17656 0.833496 3.37098 1.07787 2.68578 1.53571C2.00057 1.99355 1.46652 2.64429 1.15115 3.40565C0.83579 4.16701 0.753276 5.00479 0.914048 5.81304C1.07482 6.62129 1.47166 7.36372 2.05437 7.94644C2.63709 8.52916 3.37952 8.926 4.18778 9.08677C4.99603 9.24754 5.83381 9.16503 6.59517 8.84966C7.35653 8.5343 8.00727 8.00024 8.46511 7.31504C8.92295 6.62983 9.16732 5.82425 9.16732 5.00016C9.16732 4.45299 9.05955 3.91117 8.85015 3.40565C8.64076 2.90013 8.33384 2.4408 7.94693 2.05388C7.56002 1.66697 7.10069 1.36006 6.59517 1.15066C6.08964 0.94127 5.54783 0.833496 5.00065 0.833496ZM5.00065 8.3335C4.34138 8.3335 3.69692 8.138 3.14875 7.77173C2.60059 7.40546 2.17335 6.88486 1.92105 6.27577C1.66876 5.66669 1.60275 4.99647 1.73137 4.34986C1.85999 3.70326 2.17746 3.10932 2.64363 2.64314C3.10981 2.17697 3.70375 1.8595 4.35035 1.73088C4.99696 1.60226 5.66718 1.66827 6.27626 1.92056C6.88535 2.17286 7.40595 2.6001 7.77222 3.14826C8.13849 3.69643 8.33399 4.34089 8.33399 5.00016C8.33399 5.88422 7.9828 6.73206 7.35768 7.35719C6.73255 7.98231 5.88471 8.3335 5.00065 8.3335Z" fill="#94B9AB"/>
</svg>
