<svg width="10" height="10" viewBox="0 0 10 10" fill="none" xmlns="http://www.w3.org/2000/svg">
<g clip-path="url(#clip0_3135_11319)">
<path d="M4.16676 7.31262L3.42926 8.02929C3.23587 8.22267 2.97358 8.33132 2.70009 8.33132C2.4266 8.33132 2.16431 8.22267 1.97093 8.02929C1.77754 7.8359 1.6689 7.57361 1.6689 7.30012C1.6689 7.02663 1.77754 6.76434 1.97093 6.57095L3.86259 4.67512C4.04827 4.48885 4.29844 4.38107 4.56135 4.37409C4.82426 4.36711 5.0798 4.46146 5.27509 4.63762L5.32509 4.67929C5.40411 4.75664 5.51061 4.79944 5.62118 4.79827C5.73175 4.7971 5.83732 4.75205 5.91468 4.67304C5.99203 4.59402 6.03483 4.48752 6.03366 4.37695C6.03249 4.26638 5.98744 4.16081 5.90843 4.08345C5.88491 4.05305 5.85988 4.02384 5.83343 3.99595C5.47774 3.6865 5.01773 3.52381 4.54658 3.54083C4.07543 3.55785 3.62836 3.75331 3.29593 4.08762L1.37926 5.98345C1.05358 6.33795 0.877437 6.80457 0.887626 7.28585C0.897815 7.76714 1.09355 8.22588 1.43394 8.56627C1.77434 8.90667 2.23308 9.1024 2.71436 9.11259C3.19565 9.12278 3.66226 8.94664 4.01676 8.62095L4.73759 7.91679C4.80877 7.83914 4.84789 7.73742 4.8471 7.63209C4.8463 7.52677 4.80565 7.42565 4.73331 7.34908C4.66097 7.27252 4.56232 7.2262 4.45721 7.21943C4.35209 7.21267 4.24832 7.24596 4.16676 7.31262V7.31262ZM8.62093 1.37929C8.27042 1.03096 7.79633 0.835449 7.30218 0.835449C6.80802 0.835449 6.33394 1.03096 5.98343 1.37929L5.26259 2.08345C5.19142 2.1611 5.1523 2.26282 5.15309 2.36815C5.15389 2.47348 5.19454 2.57459 5.26688 2.65116C5.33922 2.72772 5.43787 2.77404 5.54298 2.78081C5.6481 2.78757 5.75187 2.75428 5.83343 2.68762L6.55426 1.97095C6.74765 1.77757 7.00994 1.66892 7.28343 1.66892C7.55692 1.66892 7.81921 1.77757 8.01259 1.97095C8.20598 2.16434 8.31462 2.42663 8.31462 2.70012C8.31462 2.97361 8.20598 3.2359 8.01259 3.42929L6.12093 5.32512C5.93526 5.5114 5.68509 5.61917 5.42217 5.62615C5.15926 5.63313 4.90372 5.53878 4.70843 5.36262L4.65843 5.32095C4.57942 5.2436 4.47291 5.2008 4.36234 5.20197C4.25177 5.20314 4.1462 5.24819 4.06884 5.3272C3.99149 5.40622 3.94869 5.51272 3.94986 5.62329C3.95103 5.73386 3.99608 5.83943 4.07509 5.91679C4.10536 5.94774 4.13736 5.97695 4.17093 6.00429C4.52704 6.31281 4.98686 6.47489 5.45772 6.45788C5.92858 6.44087 6.3755 6.24603 6.70843 5.91262L8.60426 4.01679C8.95481 3.66849 9.15332 3.19563 9.15645 2.70147C9.15957 2.20732 8.96705 1.73199 8.62093 1.37929V1.37929Z" fill="#94B9AB"/>
</g>
<defs>
<clipPath id="clip0_3135_11319">
<rect width="10" height="10" fill="white"/>
</clipPath>
</defs>
</svg>
