<svg width="10" height="10" viewBox="0 0 10 10" fill="none" xmlns="http://www.w3.org/2000/svg">
<path d="M7.49989 1.86659C6.83685 1.20355 5.93757 0.831055 4.99989 0.831055C4.06221 0.831055 3.16293 1.20355 2.49989 1.86659C1.83685 2.52963 1.46436 3.42891 1.46436 4.36659C1.46436 5.30427 1.83685 6.20355 2.49989 6.86659L4.69572 9.06659C4.73446 9.10564 4.78054 9.13664 4.83132 9.15779C4.88209 9.17895 4.93655 9.18984 4.99156 9.18984C5.04656 9.18984 5.10102 9.17895 5.1518 9.15779C5.20257 9.13664 5.24865 9.10564 5.28739 9.06659L7.49989 6.84576C8.16016 6.18547 8.5311 5.28994 8.5311 4.35617C8.5311 3.4224 8.16016 2.52687 7.49989 1.86659V1.86659ZM6.90406 6.24992L4.99989 8.16242L3.09572 6.24992C2.71953 5.87339 2.46342 5.39377 2.35976 4.87171C2.2561 4.34964 2.30955 3.80857 2.51335 3.31687C2.71715 2.82518 3.06215 2.40494 3.50474 2.10929C3.94732 1.81363 4.46763 1.65583 4.99989 1.65583C5.53215 1.65583 6.05245 1.81363 6.49504 2.10929C6.93763 2.40494 7.28263 2.82518 7.48643 3.31687C7.69023 3.80857 7.74368 4.34964 7.64002 4.87171C7.53636 5.39377 7.28025 5.87339 6.90406 6.24992V6.24992ZM3.74989 3.08742C3.41352 3.42483 3.22464 3.88182 3.22464 4.35826C3.22464 4.83469 3.41352 5.29168 3.74989 5.62909C3.99979 5.87942 4.31805 6.05037 4.66474 6.12051C5.01144 6.19064 5.37112 6.15683 5.69867 6.02332C6.02622 5.88981 6.30705 5.66254 6.50592 5.37003C6.7048 5.07751 6.81286 4.73278 6.81656 4.37909C6.81843 4.14292 6.77294 3.90878 6.68277 3.6905C6.59259 3.47222 6.45957 3.27424 6.29156 3.10826C6.12642 2.93933 5.92951 2.80473 5.71215 2.7122C5.49479 2.61967 5.26128 2.57104 5.02506 2.5691C4.78883 2.56716 4.55456 2.61196 4.33571 2.70092C4.11687 2.78987 3.91777 2.92123 3.74989 3.08742V3.08742ZM5.70406 5.03742C5.54616 5.19773 5.33748 5.29822 5.11369 5.32169C4.88991 5.34517 4.66492 5.29019 4.47718 5.16614C4.28945 5.0421 4.15064 4.85669 4.08448 4.64162C4.01831 4.42656 4.02891 4.19519 4.11446 3.98707C4.2 3.77895 4.35518 3.60701 4.55347 3.50065C4.75175 3.39428 4.98083 3.36009 5.20153 3.40393C5.42223 3.44777 5.62085 3.5669 5.76343 3.74098C5.90602 3.91505 5.98371 4.13324 5.98322 4.35826C5.97716 4.61545 5.86926 4.85972 5.68322 5.03742H5.70406Z" fill="#94B9AB"/>
</svg>
