<svg width="24" height="24" viewBox="0 0 24 24" fill="none" xmlns="http://www.w3.org/2000/svg">
<path d="M18.0009 4.47991C16.4096 2.88861 14.2513 1.99463 12.0009 1.99463C9.75047 1.99463 7.59221 2.88861 6.00091 4.47991C4.40961 6.07121 3.51563 8.22947 3.51563 10.4799C3.51562 12.7303 4.40961 14.8886 6.00091 16.4799L11.2709 21.7599C11.3639 21.8536 11.4745 21.928 11.5963 21.9788C11.7182 22.0296 11.8489 22.0557 11.9809 22.0557C12.1129 22.0557 12.2436 22.0296 12.3655 21.9788C12.4873 21.928 12.5979 21.8536 12.6909 21.7599L18.0009 16.4299C19.5856 14.8452 20.4758 12.696 20.4758 10.4549C20.4758 8.21386 19.5856 6.06459 18.0009 4.47991V4.47991ZM16.5709 14.9999L12.0009 19.5899L7.43091 14.9999C6.52805 14.0962 5.91338 12.9452 5.6646 11.6922C5.41582 10.4392 5.54409 9.14066 6.03321 7.96059C6.52233 6.78052 7.35032 5.77196 8.41254 5.06239C9.47475 4.35281 10.7235 3.97409 12.0009 3.97409C13.2783 3.97409 14.5271 4.35281 15.5893 5.06239C16.6515 5.77196 17.4795 6.78052 17.9686 7.96059C18.4577 9.14066 18.586 10.4392 18.3372 11.6922C18.0884 12.9452 17.4738 14.0962 16.5709 14.9999V14.9999ZM9.00091 7.40991C8.19362 8.21968 7.7403 9.31648 7.7403 10.4599C7.7403 11.6033 8.19362 12.7001 9.00091 13.5099C9.60067 14.1107 10.3645 14.521 11.1966 14.6893C12.0286 14.8576 12.8919 14.7765 13.678 14.4561C14.4641 14.1356 15.1381 13.5902 15.6154 12.8882C16.0927 12.1861 16.352 11.3588 16.3609 10.5099C16.3654 9.94311 16.2562 9.38117 16.0398 8.8573C15.8234 8.33343 15.5041 7.85827 15.1009 7.45991C14.7046 7.05449 14.232 6.73145 13.7103 6.50938C13.1887 6.2873 12.6282 6.17059 12.0613 6.16594C11.4944 6.16129 10.9321 6.26881 10.4069 6.4823C9.88165 6.69579 9.40383 7.01104 9.00091 7.40991V7.40991ZM13.6909 12.0899C13.3119 12.4747 12.8111 12.7158 12.274 12.7722C11.737 12.8285 11.197 12.6966 10.7464 12.3988C10.2959 12.1011 9.9627 11.6562 9.80391 11.14C9.64512 10.6238 9.67056 10.0685 9.87586 9.56907C10.0812 9.06958 10.4536 8.65693 10.9295 8.40165C11.4054 8.14637 11.9552 8.06432 12.4848 8.16953C13.0145 8.27474 13.4912 8.56067 13.8334 8.97844C14.1756 9.39621 14.3621 9.91988 14.3609 10.4599C14.3464 11.0772 14.0874 11.6634 13.6409 12.0899H13.6909Z" fill="#94B9AB"/>
</svg>
