<svg width="8" height="10" viewBox="0 0 8 10" fill="none" xmlns="http://www.w3.org/2000/svg">
<path d="M6.50038 1.86659C5.83734 1.20355 4.93806 0.831055 4.00038 0.831055C3.0627 0.831055 2.16342 1.20355 1.50038 1.86659C0.837336 2.52963 0.464844 3.42891 0.464844 4.36659C0.464844 5.30427 0.837336 6.20355 1.50038 6.86659L3.69621 9.06659C3.73495 9.10564 3.78103 9.13664 3.8318 9.15779C3.88258 9.17895 3.93704 9.18984 3.99204 9.18984C4.04705 9.18984 4.10151 9.17895 4.15228 9.15779C4.20306 9.13664 4.24914 9.10564 4.28788 9.06659L6.50038 6.84576C7.16065 6.18547 7.53158 5.28994 7.53158 4.35617C7.53158 3.4224 7.16065 2.52687 6.50038 1.86659ZM5.90454 6.24992L4.00038 8.16242L2.09621 6.24992C1.72002 5.87339 1.46391 5.39377 1.36025 4.87171C1.25659 4.34964 1.31004 3.80857 1.51384 3.31687C1.71764 2.82518 2.06263 2.40494 2.50522 2.10929C2.94781 1.81363 3.46812 1.65583 4.00038 1.65583C4.53263 1.65583 5.05294 1.81363 5.49553 2.10929C5.93812 2.40494 6.28312 2.82518 6.48692 3.31687C6.69072 3.80857 6.74416 4.34964 6.6405 4.87171C6.53685 5.39377 6.28073 5.87339 5.90454 6.24992ZM2.75038 3.08742C2.41401 3.42483 2.22513 3.88182 2.22513 4.35826C2.22513 4.83469 2.41401 5.29168 2.75038 5.62909C3.00028 5.87942 3.31854 6.05037 3.66523 6.12051C4.01192 6.19064 4.37161 6.15683 4.69916 6.02332C5.02671 5.88981 5.30754 5.66254 5.50641 5.37003C5.70529 5.07751 5.81335 4.73278 5.81704 4.37909C5.81892 4.14292 5.77343 3.90878 5.68325 3.6905C5.59308 3.47222 5.46005 3.27424 5.29204 3.10826C5.12691 2.93933 4.92999 2.80473 4.71264 2.7122C4.49528 2.61967 4.26177 2.57104 4.02554 2.5691C3.78932 2.56716 3.55504 2.61196 3.3362 2.70092C3.11735 2.78987 2.91826 2.92123 2.75038 3.08742ZM4.70454 5.03742C4.54665 5.19773 4.33797 5.29821 4.11418 5.32169C3.8904 5.34517 3.6654 5.29019 3.47767 5.16614C3.28994 5.0421 3.15113 4.85669 3.08496 4.64162C3.0188 4.42656 3.0294 4.19519 3.11494 3.98707C3.20049 3.77895 3.35567 3.60701 3.55395 3.50065C3.75224 3.39428 3.98132 3.36009 4.20202 3.40393C4.42272 3.44777 4.62134 3.5669 4.76392 3.74098C4.90651 3.91505 4.9842 4.13324 4.98371 4.35826C4.97765 4.61545 4.86975 4.85972 4.68371 5.03742H4.70454Z" fill="#94B9AB"/>
</svg>
