<svg width="24" height="24" viewBox="0 0 24 24" fill="none" xmlns="http://www.w3.org/2000/svg">
<path d="M19.4406 12.9999C19.2206 12.9999 18.9906 12.9299 18.7706 12.8799C18.3251 12.7817 17.8873 12.6514 17.4606 12.4899C16.9967 12.3211 16.4867 12.3299 16.0289 12.5145C15.5711 12.6991 15.1977 13.0465 14.9806 13.4899L14.7606 13.9399C13.7866 13.398 12.8916 12.7251 12.1006 11.9399C11.3154 11.1489 10.6424 10.2539 10.1006 9.27987L10.5206 8.99987C10.964 8.78278 11.3114 8.4094 11.496 7.95156C11.6806 7.49372 11.6894 6.98378 11.5206 6.51987C11.3618 6.09229 11.2315 5.65467 11.1306 5.20987C11.0806 4.98987 11.0406 4.75987 11.0106 4.52987C10.8892 3.82549 10.5202 3.18761 9.97021 2.73111C9.42021 2.2746 8.72528 2.02948 8.01059 2.03987H5.01059C4.57962 2.03582 4.15284 2.12468 3.7593 2.3004C3.36576 2.47612 3.0147 2.73456 2.73002 3.05815C2.44534 3.38174 2.23372 3.76286 2.10958 4.17558C1.98543 4.5883 1.95167 5.02293 2.01059 5.44987C2.54333 9.63925 4.45662 13.5317 7.44824 16.5125C10.4399 19.4933 14.3393 21.3924 18.5306 21.9099H18.9106C19.648 21.911 20.36 21.6404 20.9106 21.1499C21.227 20.8669 21.4797 20.52 21.6521 20.1322C21.8244 19.7443 21.9126 19.3243 21.9106 18.8999V15.8999C21.8983 15.2053 21.6454 14.5364 21.1949 14.0075C20.7445 13.4786 20.1244 13.1225 19.4406 12.9999V12.9999ZM19.9406 18.9999C19.9404 19.1419 19.91 19.2822 19.8514 19.4115C19.7927 19.5408 19.7073 19.6562 19.6006 19.7499C19.4892 19.8469 19.3586 19.9193 19.2173 19.9624C19.076 20.0054 18.9272 20.0182 18.7806 19.9999C15.0355 19.5197 11.5568 17.8064 8.89331 15.1302C6.22979 12.454 4.533 8.96721 4.07059 5.21987C4.05467 5.07339 4.06862 4.9252 4.11159 4.78426C4.15456 4.64332 4.22566 4.51256 4.32059 4.39987C4.4143 4.2932 4.52965 4.20771 4.65897 4.14909C4.78829 4.09046 4.9286 4.06005 5.07059 4.05987H8.07059C8.30314 4.05469 8.53021 4.13075 8.71273 4.27494C8.89525 4.41913 9.0218 4.62244 9.07059 4.84987C9.11059 5.1232 9.16059 5.3932 9.22059 5.65987C9.33611 6.18701 9.48985 6.70505 9.68059 7.20987L8.28059 7.85987C8.16089 7.91479 8.05321 7.99281 7.96375 8.08946C7.87428 8.18611 7.80479 8.29948 7.75926 8.42306C7.71373 8.54664 7.69306 8.678 7.69844 8.80959C7.70381 8.94118 7.73513 9.07041 7.79059 9.18987C9.22979 12.2726 11.7078 14.7507 14.7906 16.1899C15.0341 16.2899 15.3071 16.2899 15.5506 16.1899C15.6753 16.1453 15.7899 16.0763 15.8878 15.9871C15.9856 15.8978 16.0648 15.79 16.1206 15.6699L16.7406 14.2699C17.2576 14.4547 17.7852 14.6084 18.3206 14.7299C18.5873 14.7899 18.8573 14.8399 19.1306 14.8799C19.358 14.9287 19.5613 15.0552 19.7055 15.2377C19.8497 15.4202 19.9258 15.6473 19.9206 15.8799L19.9406 18.9999Z" fill="#94B9AB"/>
</svg>
