<svg width="10" height="10" viewBox="0 0 10 10" fill="none" xmlns="http://www.w3.org/2000/svg">
<path d="M8.10041 5.4169C8.00874 5.4169 7.91291 5.38773 7.82124 5.3669C7.63561 5.32599 7.45319 5.27168 7.27541 5.2044C7.08211 5.13408 6.86964 5.13773 6.67887 5.21465C6.4881 5.29157 6.33253 5.43633 6.24207 5.62106L6.15041 5.80856C5.74458 5.5828 5.37165 5.30241 5.04208 4.97523C4.7149 4.64565 4.4345 4.27273 4.20874 3.8669L4.38374 3.75023C4.56848 3.65978 4.71323 3.5042 4.79016 3.31343C4.86708 3.12267 4.87073 2.91019 4.80041 2.7169C4.73425 2.53874 4.67997 2.3564 4.63791 2.17106C4.61707 2.0794 4.60041 1.98356 4.58791 1.88773C4.53731 1.59424 4.38358 1.32846 4.15442 1.13825C3.92525 0.948037 3.6357 0.8459 3.33791 0.85023H2.08791C1.90834 0.848544 1.73051 0.885569 1.56654 0.958784C1.40256 1.032 1.25629 1.13969 1.13767 1.27451C1.01905 1.40934 0.930881 1.56814 0.879153 1.74011C0.827425 1.91208 0.813358 2.09317 0.837908 2.27106C1.05988 4.01664 1.85709 5.63851 3.1036 6.8805C4.35011 8.12248 5.97487 8.91378 7.72124 9.1294H7.87957C8.18683 9.12985 8.48349 9.01712 8.71291 8.81273C8.84473 8.69483 8.95003 8.5503 9.02185 8.3887C9.09368 8.22709 9.13039 8.05208 9.12957 7.87523V6.62523C9.12447 6.33581 9.01908 6.05713 8.83138 5.83676C8.64369 5.61639 8.38533 5.46799 8.10041 5.4169ZM8.30874 7.9169C8.30867 7.97606 8.29599 8.03452 8.27157 8.08841C8.24714 8.14229 8.21152 8.19035 8.16708 8.2294C8.12066 8.26982 8.06623 8.29999 8.00736 8.31794C7.94848 8.33589 7.88648 8.34121 7.82541 8.33356C6.26495 8.13348 4.81551 7.4196 3.70571 6.30452C2.59591 5.18944 1.88891 3.73662 1.69624 2.17523C1.68961 2.1142 1.69542 2.05245 1.71333 1.99373C1.73123 1.935 1.76085 1.88052 1.80041 1.83356C1.83945 1.78912 1.88752 1.7535 1.9414 1.72907C1.99528 1.70464 2.05375 1.69197 2.11291 1.6919H3.36291C3.4598 1.68974 3.55442 1.72143 3.63047 1.78151C3.70652 1.84159 3.75925 1.9263 3.77957 2.02106C3.79624 2.13495 3.81707 2.24745 3.84207 2.35856C3.89021 2.57821 3.95427 2.79405 4.03374 3.0044L3.45041 3.27523C3.40053 3.29811 3.35567 3.33062 3.31839 3.37089C3.28111 3.41117 3.25216 3.4584 3.23319 3.50989C3.21422 3.56139 3.2056 3.61612 3.20784 3.67095C3.21008 3.72578 3.22313 3.77962 3.24624 3.8294C3.84591 5.11388 4.87843 6.1464 6.16291 6.74606C6.26435 6.78774 6.37813 6.78774 6.47958 6.74606C6.53154 6.72748 6.57929 6.69875 6.62006 6.66156C6.66083 6.62436 6.69381 6.57944 6.71708 6.5294L6.97541 5.94606C7.19081 6.0231 7.41065 6.0871 7.63374 6.13773C7.74485 6.16273 7.85735 6.18356 7.97124 6.20023C8.066 6.22056 8.15072 6.27329 8.2108 6.34934C8.27087 6.42539 8.30256 6.52 8.30041 6.6169L8.30874 7.9169Z" fill="#94B9AB"/>
</svg>
