<svg width="10" height="10" viewBox="0 0 10 10" fill="none" xmlns="http://www.w3.org/2000/svg">
<g clip-path="url(#clip0_3135_11311)">
<path d="M8.09992 5.41665C8.00825 5.41665 7.91242 5.38749 7.82075 5.36665C7.63512 5.32575 7.4527 5.27144 7.27492 5.20415C7.08162 5.13383 6.86915 5.13748 6.67838 5.21441C6.48762 5.29133 6.33204 5.43608 6.24159 5.62082L6.14992 5.80832C5.74409 5.58256 5.37116 5.30217 5.04159 4.97499C4.71441 4.64541 4.43401 4.27248 4.20825 3.86665L4.38325 3.74999C4.56799 3.65953 4.71275 3.50396 4.78967 3.31319C4.86659 3.12242 4.87024 2.90995 4.79992 2.71665C4.73376 2.53849 4.67948 2.35615 4.63742 2.17082C4.61659 2.07915 4.59992 1.98332 4.58742 1.88749C4.53682 1.59399 4.3831 1.32821 4.15393 1.138C3.92476 0.947793 3.63521 0.845656 3.33742 0.849986H2.08742C1.90785 0.8483 1.73002 0.885325 1.56605 0.95854C1.40207 1.03176 1.2558 1.13944 1.13718 1.27427C1.01857 1.4091 0.930393 1.5679 0.878665 1.73987C0.826937 1.91183 0.81287 2.09293 0.83742 2.27082C1.05939 4.01639 1.8566 5.63827 3.10311 6.88025C4.34962 8.12223 5.97438 8.91353 7.72075 9.12915H7.87909C8.18634 9.1296 8.483 9.01687 8.71242 8.81249C8.84424 8.69459 8.94954 8.55006 9.02136 8.38845C9.09319 8.22684 9.12991 8.05183 9.12909 7.87499V6.62499C9.12398 6.33556 9.01859 6.05688 8.83089 5.83651C8.6432 5.61614 8.38484 5.46775 8.09992 5.41665V5.41665ZM8.30825 7.91665C8.30818 7.97581 8.29551 8.03428 8.27108 8.08816C8.24665 8.14204 8.21103 8.19011 8.16659 8.22915C8.12017 8.26957 8.06574 8.29974 8.00687 8.31769C7.94799 8.33564 7.88599 8.34097 7.82492 8.33332C6.26446 8.13324 4.81502 7.41935 3.70522 6.30427C2.59542 5.18919 1.88842 3.73638 1.69575 2.17499C1.68912 2.11395 1.69493 2.05221 1.71284 1.99348C1.73074 1.93476 1.76037 1.88027 1.79992 1.83332C1.83897 1.78887 1.88703 1.75325 1.94091 1.72883C1.99479 1.7044 2.05326 1.69173 2.11242 1.69165H3.36242C3.45931 1.6895 3.55393 1.72119 3.62998 1.78127C3.70603 1.84134 3.75876 1.92606 3.77909 2.02082C3.79575 2.13471 3.81659 2.24721 3.84159 2.35832C3.88972 2.57796 3.95378 2.79381 4.03325 3.00415L3.44992 3.27499C3.40004 3.29787 3.35518 3.33038 3.3179 3.37065C3.28063 3.41092 3.25167 3.45816 3.2327 3.50965C3.21373 3.56114 3.20512 3.61587 3.20736 3.6707C3.2096 3.72553 3.22265 3.77938 3.24575 3.82915C3.84542 5.11363 4.87794 6.14615 6.16242 6.74582C6.26386 6.78749 6.37764 6.78749 6.47909 6.74582C6.53105 6.72723 6.5788 6.69851 6.61957 6.66131C6.66035 6.62412 6.69332 6.5792 6.71659 6.52915L6.97492 5.94582C7.19032 6.02285 7.41016 6.08686 7.63325 6.13749C7.74436 6.16249 7.85686 6.18332 7.97075 6.19999C8.06552 6.22032 8.15023 6.27304 8.21031 6.34909C8.27039 6.42514 8.30208 6.51976 8.29992 6.61665L8.30825 7.91665Z" fill="#94B9AB"/>
</g>
<defs>
<clipPath id="clip0_3135_11311">
<rect width="10" height="10" fill="white"/>
</clipPath>
</defs>
</svg>
