<svg width="101" height="62" viewBox="0 0 101 62" fill="none" xmlns="http://www.w3.org/2000/svg">
<path d="M29.5714 9.63741C29.5714 10.9399 25.8937 12.003 21.354 12.003C16.8143 12.003 13.127 10.9399 13.127 9.63741M29.5714 9.63741C29.5714 8.3253 25.8937 7.26221 21.354 7.26221C16.8143 7.26221 13.127 8.33488 13.127 9.63741M29.5714 9.63741V21.3889M13.127 9.63741V21.3889M29.5714 41.9421V50.3511C29.5714 50.3511 29.5714 50.4277 29.5714 50.4661C29.3607 51.7207 25.7404 52.7168 21.3636 52.7168C16.9867 52.7168 13.3568 51.759 13.1461 50.4661C13.1461 50.4661 13.1461 50.3894 13.1461 50.3511V41.9421C13.1461 43.2447 16.8334 44.3078 21.3731 44.3078C25.9128 44.3078 29.5714 43.2159 29.5714 41.9421ZM29.5714 41.9421V21.3889M29.5714 41.9421C29.5714 43.2447 25.8937 44.3078 21.354 44.3078C16.8143 44.3078 13.127 43.2159 13.127 41.9421V21.3889M29.5714 21.3889C29.5714 22.701 25.8937 23.7641 21.354 23.7641C16.8143 23.7641 13.127 22.701 13.127 21.3889M24.2081 48.5793H18.4903M21.3444 14.8571V20.5749M18.4903 17.7208H24.2081M47.4525 32.834V38.5517M44.5984 35.6881H50.3066M82.7933 35.6881H77.0851M37.0323 24.5878H89.0569M13.127 50.3224C13.127 50.3224 13.127 50.399 13.127 50.4373V50.3224ZM29.5618 50.4373C29.5618 50.4373 29.5618 50.3607 29.5618 50.3224V50.4373ZM37.0323 18.5732H89.0569V51.2227H37.0323V18.5732ZM44.1866 14.4453H50.7184V18.5827H44.1866V14.4453ZM76.6733 14.4453H83.2051V18.5827H76.6733V14.4453Z" stroke="#070707" stroke-miterlimit="10"/>
</svg>
