<svg width="101" height="76" viewBox="0 0 101 76" fill="none" xmlns="http://www.w3.org/2000/svg">
<g clip-path="url(#clip0_2067_10114)">
<path d="M49.3263 34.2048V33.7048H48.8263V34.2048H49.3263ZM100.155 34.2048H100.655V33.7048H100.155V34.2048ZM100.155 66.1039V66.6039H100.655V66.1039H100.155ZM49.3263 66.1039H48.8263V66.6039H49.3263V66.1039ZM56.3115 30.1534V29.6534H55.8115V30.1534H56.3115ZM62.6913 30.1534H63.1913V29.6534H62.6913V30.1534ZM62.6913 34.1932V34.6932H63.1913V34.1932H62.6913ZM56.3115 34.1932H55.8115V34.6932H56.3115V34.1932ZM88.0592 30.1534V29.6534H87.5592V30.1534H88.0592ZM94.439 30.1534H94.939V29.6534H94.439V30.1534ZM94.439 34.1932V34.6932H94.939V34.1932H94.439ZM88.0592 34.1932H87.5592V34.6932H88.0592V34.1932ZM28.9296 10.8394L28.9589 10.3402L28.9442 10.3394H28.9296V10.8394ZM19.5811 24.4838L19.0932 24.374L19.0925 24.3773L19.5811 24.4838ZM18.1025 38.6521L18.6026 38.6562L18.6025 38.6487L18.1025 38.6521ZM19.5461 52.7505L19.0573 52.8558L19.0584 52.8606L19.5461 52.7505ZM28.8946 66.3949V66.8949H28.9092L28.9238 66.8941L28.8946 66.3949ZM13.3904 25.1211C13.6138 24.9588 13.6633 24.6461 13.5009 24.4227C13.3386 24.1993 13.0259 24.1498 12.8025 24.3121L13.3904 25.1211ZM6.11128 29.7925L5.81735 29.388L5.26136 29.792L5.81691 30.1967L6.11128 29.7925ZM13.0965 34.8801L13.3904 35.2845L13.9464 34.8805L13.3908 34.4759L13.0965 34.8801ZM6.11128 39.956L5.81735 39.5515L5.26136 39.9555L5.81691 40.3601L6.11128 39.956ZM13.0965 45.0435L13.3908 45.4477L13.9457 45.0435L13.3908 44.6393L13.0965 45.0435ZM5.81691 49.7269C5.5937 49.8895 5.54454 50.2022 5.70711 50.4254C5.86968 50.6486 6.18243 50.6978 6.40564 50.5352L5.81691 49.7269ZM59.0014 48.1286V53.7168H60.0014V48.1286H59.0014ZM56.719 51.4227H62.2955V50.4227H56.719V51.4227ZM49.3263 34.7048H100.155V33.7048H49.3263V34.7048ZM99.6552 34.2048V66.1039H100.655V34.2048H99.6552ZM100.155 65.6039H49.3263V66.6039H100.155V65.6039ZM49.8263 66.1039V34.2048H48.8263V66.1039H49.8263ZM56.3115 30.6534H62.6913V29.6534H56.3115V30.6534ZM62.1913 30.1534V34.1932H63.1913V30.1534H62.1913ZM62.6913 33.6932H56.3115V34.6932H62.6913V33.6932ZM56.8115 34.1932V30.1534H55.8115V34.1932H56.8115ZM94.0432 50.4227H88.455V51.4227H94.0432V50.4227ZM88.0592 30.6534H94.439V29.6534H88.0592V30.6534ZM93.939 30.1534V34.1932H94.939V30.1534H93.939ZM94.439 33.6932H88.0592V34.6932H94.439V33.6932ZM88.5592 34.1932V30.1534H87.5592V34.1932H88.5592ZM49.3263 40.5724H100.155V39.5724H49.3263V40.5724ZM34.6115 38.6521C34.6115 44.3689 33.9223 49.5256 32.8204 53.2369C32.2684 55.0957 31.6212 56.5636 30.9252 57.5556C30.2195 58.5616 29.5373 58.9796 28.9296 58.9796V59.9796C30.0274 59.9796 30.9707 59.2319 31.7439 58.1299C32.5268 57.014 33.2118 55.4317 33.779 53.5215C34.9153 49.6945 35.6115 44.4375 35.6115 38.6521H34.6115ZM28.9296 58.9796C28.3214 58.9796 27.6385 58.5618 26.9318 57.5568C26.2348 56.5657 25.5862 55.0989 25.0328 53.2408C23.9281 49.5312 23.236 44.3746 23.236 38.6521H22.236C22.236 44.4435 22.9352 49.7006 24.0744 53.5262C24.6431 55.4358 25.3297 57.017 26.1138 58.132C26.8881 59.2331 27.8322 59.9796 28.9296 59.9796V58.9796ZM23.236 38.6521C23.236 32.9293 23.9252 27.7727 25.0285 24.0631C25.5811 22.2051 26.2294 20.7384 26.9268 19.7475C27.6337 18.743 28.318 18.3245 28.9296 18.3245V17.3245C27.8298 17.3245 26.8842 18.0703 26.109 19.1719C25.3242 20.2871 24.638 21.8684 24.07 23.778C22.9322 27.6037 22.236 32.8609 22.236 38.6521H23.236ZM28.9296 18.3245C29.5418 18.3245 30.2253 18.7415 30.9307 19.7428C31.6268 20.7308 32.2736 22.194 32.8247 24.0498C33.9251 27.755 34.6115 32.9116 34.6115 38.6521H35.6115C35.6115 32.8437 34.9182 27.5865 33.7834 23.7651C33.2169 21.8577 32.5321 20.2794 31.7482 19.1668C30.9736 18.0674 30.0287 17.3245 28.9296 17.3245V18.3245ZM28.9296 10.3394H28.6851V11.3394H28.9296V10.3394ZM28.6851 10.3394C26.4931 10.3394 24.5456 11.8824 22.9505 14.3233C21.3449 16.7804 20.0205 20.2541 19.0933 24.374L20.0689 24.5936C20.981 20.5407 22.2703 17.1923 23.7876 14.8703C25.3155 12.5322 27.0003 11.3394 28.6851 11.3394V10.3394ZM19.0925 24.3773C18.0702 29.067 17.5705 33.8556 17.6025 38.6554L18.6025 38.6487C18.5709 33.9228 19.063 29.2079 20.0696 24.5903L19.0925 24.3773ZM17.6025 38.648C17.5634 43.423 18.0513 48.1878 19.0573 52.8558L20.0349 52.6452C19.0444 48.049 18.564 43.3576 18.6025 38.6562L17.6025 38.648ZM19.0584 52.8606C19.9857 56.9688 21.31 60.4422 22.9154 62.902C24.51 65.3451 26.4574 66.8949 28.6502 66.8949V65.8949C26.9661 65.8949 25.2813 64.6972 23.7528 62.3554C22.2353 60.0303 20.946 56.6816 20.0339 52.6404L19.0584 52.8606ZM28.6502 66.8949H28.8946V65.8949H28.6502V66.8949ZM28.9238 66.8941C30.5524 66.799 32.0392 65.867 33.3342 64.3735C34.6302 62.8789 35.7719 60.7813 36.7193 58.2474C38.615 53.1768 39.7676 46.2635 39.7676 38.6521H38.7676C38.7676 46.1752 37.6268 52.9645 35.7826 57.8972C34.8599 60.365 33.7701 62.3444 32.5787 63.7184C31.3863 65.0936 30.1299 65.822 28.8655 65.8958L28.9238 66.8941ZM39.7676 38.6521C39.7676 31.0405 38.615 24.1102 36.724 19.0226C35.779 16.4803 34.6408 14.3743 33.3503 12.8733C32.0611 11.3738 30.5807 10.4354 28.9589 10.3402L28.9003 11.3385C30.154 11.4121 31.4036 12.1429 32.592 13.5252C33.779 14.9059 34.866 16.8942 35.7866 19.3711C37.6268 24.3218 38.7676 31.129 38.7676 38.6521H39.7676ZM28.9296 58.933C28.318 58.933 27.6337 58.5146 26.9268 57.5101C26.2294 56.5191 25.5811 55.0525 25.0285 53.1944C23.9252 49.4848 23.236 44.3282 23.236 38.6055H22.236C22.236 44.3967 22.9322 49.6538 24.07 53.4795C24.638 55.3891 25.3242 56.9704 26.109 58.0856C26.8842 59.1872 27.8298 59.933 28.9296 59.933V58.933ZM23.236 38.6055C23.236 32.8828 23.9252 27.7262 25.0285 24.0165C25.5811 22.1585 26.2294 20.6918 26.9268 19.7009C27.6337 18.6964 28.318 18.278 28.9296 18.278V17.278C27.8298 17.278 26.8842 18.0238 26.109 19.1254C25.3242 20.2405 24.638 21.8219 24.07 23.7315C22.9322 27.5571 22.236 32.8143 22.236 38.6055H23.236ZM28.9296 18.278C29.541 18.278 30.2246 18.6962 30.9304 19.7006C31.6267 20.6915 32.2735 22.1581 32.8247 24.0162C33.9251 27.7259 34.6115 32.8826 34.6115 38.6055H35.6115C35.6115 32.8145 34.9182 27.5574 33.7834 23.7318C33.2169 21.8223 32.5322 20.2409 31.7486 19.1257C30.9744 18.024 30.0295 17.278 28.9296 17.278V18.278ZM34.6115 38.6055C34.6115 44.3284 33.9251 49.4851 32.8247 53.1948C32.2735 55.0528 31.6267 56.5195 30.9304 57.5104C30.2246 58.5148 29.541 58.933 28.9296 58.933V59.933C30.0295 59.933 30.9744 59.187 31.7486 58.0853C32.5322 56.9701 33.2169 55.3887 33.7834 53.4792C34.9182 49.6536 35.6115 44.3965 35.6115 38.6055H34.6115ZM28.6851 65.8949H10.477V66.8949H28.6851V65.8949ZM10.477 65.8949C9.21341 65.8949 7.94828 65.2219 6.73743 63.8777C5.52694 62.534 4.41184 60.5615 3.4641 58.0816C1.56994 53.1252 0.382812 46.2439 0.382812 38.6171H-0.617188C-0.617188 46.3345 0.582296 53.3421 2.52999 58.4386C3.50317 60.9851 4.67282 63.08 5.99445 64.5471C7.31574 66.0138 8.83013 66.8949 10.477 66.8949V65.8949ZM0.382812 38.6171C0.382812 30.9899 1.56133 24.1086 3.45114 19.1523C4.3967 16.6725 5.51063 14.7003 6.72248 13.3568C7.93436 12.0132 9.20387 11.3394 10.477 11.3394V10.3394C8.8222 10.3394 7.30346 11.2197 5.97993 12.687C4.65638 14.1543 3.48776 16.2495 2.51676 18.7961C0.573439 23.8926 -0.617188 30.9002 -0.617188 38.6171H0.382812ZM10.477 11.3394H28.6851V10.3394H10.477V11.3394ZM19.0588 52.8623C20.0035 56.9816 21.3366 60.4548 22.9465 62.9115C24.5457 65.3519 26.4932 66.8949 28.6851 66.8949V65.8949C27.0002 65.8949 25.3154 64.702 23.7829 62.3634C22.2611 60.041 20.9631 56.6921 20.0335 52.6387L19.0588 52.8623ZM12.8025 24.3121L5.81735 29.388L6.4052 30.197L13.3904 25.1211L12.8025 24.3121ZM5.81691 30.1967L12.8021 35.2842L13.3908 34.4759L6.40564 29.3883L5.81691 30.1967ZM12.8025 34.4756L5.81735 39.5515L6.4052 40.3604L13.3904 35.2845L12.8025 34.4756ZM5.81691 40.3601L12.8021 45.4477L13.3908 44.6393L6.40564 39.5518L5.81691 40.3601ZM12.8021 44.6393L5.81691 49.7269L6.40564 50.5352L13.3908 45.4477L12.8021 44.6393Z" fill="#070707"/>
</g>
<defs>
<clipPath id="clip0_2067_10114">
<rect width="100" height="74.0741" fill="white" transform="translate(0.5 0.962891)"/>
</clipPath>
</defs>
</svg>
