<svg width="61" height="60" viewBox="0 0 61 60" fill="none" xmlns="http://www.w3.org/2000/svg">
<path d="M22.0781 32.6633H24.9944V12.273C24.9956 12.0823 24.9582 11.8934 24.8846 11.7175C24.811 11.5416 24.7026 11.3823 24.5659 11.2493C24.3624 11.0463 24.1033 10.908 23.8214 10.8518C23.5395 10.7956 23.2472 10.824 22.9814 10.9334C22.7155 11.0427 22.488 11.2283 22.3272 11.4666C22.1665 11.705 22.0799 11.9855 22.0781 12.273V32.6633ZM22.0781 32.6633L22.0781 37.4662C22.0765 38.8455 22.4978 40.1921 23.2854 41.3244C24.0729 42.4567 25.1887 43.3203 26.4823 43.7987V49.9587H28.363C28.2056 50.1571 28.1178 50.4017 28.1131 50.655C28.1131 51.6668 29.5355 52.5 31.2853 52.5C33.0351 52.5 34.4515 51.6668 34.4515 50.655C34.452 50.4038 34.3705 50.1593 34.2194 49.9587H36.2965V43.7809C37.5757 43.2932 38.6763 42.428 39.4523 41.3002C40.2283 40.1723 40.6429 38.8352 40.6412 37.4662V32.6633M22.0781 32.6633L40.6412 32.6633M40.6412 32.6633V12.273C40.6381 11.8888 40.4841 11.5213 40.2125 11.2496C39.9408 10.9779 39.5732 10.8239 39.189 10.8208C38.9975 10.82 38.8078 10.857 38.6306 10.9295C38.4534 11.0021 38.2922 11.1088 38.1562 11.2437C38.0203 11.3785 37.9122 11.5388 37.8382 11.7154C37.7642 11.8921 37.7257 12.0815 37.7249 12.273V32.6633H40.6412ZM35.7073 11.6897V32.6633H27.012V11.6897C27.0537 10.5645 27.5299 9.49925 28.3407 8.71791C29.1515 7.93656 30.2337 7.5 31.3597 7.5C32.4857 7.5 33.5678 7.93656 34.3786 8.71791C35.1894 9.49925 35.6657 10.5645 35.7073 11.6897ZM33.4576 12.3563V32.6633H29.2617V12.3563C29.2617 11.8054 29.4806 11.2771 29.8701 10.8876C30.2596 10.4981 30.788 10.2792 31.3388 10.2792H31.3805C31.9314 10.2792 32.4597 10.4981 32.8493 10.8876C33.2388 11.2771 33.4576 11.8054 33.4576 12.3563Z" stroke="#070707" stroke-miterlimit="10"/>
</svg>
