<svg width="61" height="60" viewBox="0 0 61 60" fill="none" xmlns="http://www.w3.org/2000/svg">
<path d="M29.4978 47.408C29.4691 49.7275 28.2634 53 30.5599 53C32.8851 53 31.7082 49.8193 31.7082 47.4941V47.408M29.4978 47.408H31.7082M29.4978 47.408V47.3162L26.3516 30.5V11.8754C26.3516 10.8475 26.7599 9.86183 27.4866 9.13506C28.2134 8.40829 29.1991 8 30.2269 8H30.8929C31.9207 8 32.9064 8.40829 33.6332 9.13506C34.36 9.86183 34.7683 10.8475 34.7683 11.8754V30.5L31.7082 47.408M29.4978 47.408H29.4002M31.7082 47.408H31.7943M30.5599 47.408V10.9855M27.6606 16.2387H33.4535M29.0672 18.4893H32.0526M29.0672 23.1799H32.0526M29.0672 28.06H32.0526M27.6606 20.7456H33.4535M27.6606 25.6199H33.4535" stroke="#070707" stroke-miterlimit="10"/>
</svg>
