<svg width="50" height="50" viewBox="0 0 50 50" fill="none" xmlns="http://www.w3.org/2000/svg">
<path d="M45.3125 18.75C45.3125 17.9212 44.9833 17.1263 44.3972 16.5403C43.8112 15.9542 43.0163 15.625 42.1875 15.625H35.9375V9.375C35.9375 8.5462 35.6083 7.75134 35.0222 7.16529C34.4362 6.57924 33.6413 6.25 32.8125 6.25H7.8125C6.9837 6.25 6.18884 6.57924 5.60279 7.16529C5.01674 7.75134 4.6875 8.5462 4.6875 9.375V34.375C4.68842 34.669 4.77224 34.9567 4.92934 35.2052C5.08644 35.4536 5.31044 35.6527 5.57561 35.7796C5.84078 35.9065 6.13637 35.956 6.42841 35.9224C6.72044 35.8888 6.99709 35.7736 7.22656 35.5898L14.0625 30.0781V35.9375C14.0625 36.7663 14.3917 37.5612 14.9778 38.1472C15.5638 38.7333 16.3587 39.0625 17.1875 39.0625H35.4668L42.7734 44.9648C43.0499 45.1885 43.3944 45.3111 43.75 45.3125C44.1644 45.3125 44.5618 45.1479 44.8549 44.8549C45.1479 44.5618 45.3125 44.1644 45.3125 43.75V18.75ZM37.002 36.2852C36.7255 36.0615 36.381 35.9389 36.0254 35.9375H17.1875V29.6875H32.8125C33.6413 29.6875 34.4362 29.3583 35.0222 28.7722C35.6083 28.1862 35.9375 27.3913 35.9375 26.5625V18.75H42.1875V40.4785L37.002 36.2852Z" fill="#F6FCEA"/>
</svg>
