<svg width="16" height="16" viewBox="0 0 16 16" fill="none" xmlns="http://www.w3.org/2000/svg">
<path d="M12.473 4.80657C12.411 4.74409 12.3373 4.69449 12.256 4.66065C12.1748 4.6268 12.0876 4.60938 11.9996 4.60938C11.9116 4.60938 11.8245 4.6268 11.7433 4.66065C11.662 4.69449 11.5883 4.74409 11.5263 4.80657L6.55964 9.77991L4.47297 7.68657C4.40863 7.62441 4.33267 7.57554 4.24943 7.54274C4.16619 7.50993 4.07731 7.49385 3.98786 7.49539C3.8984 7.49694 3.81013 7.51609 3.72808 7.55176C3.64602 7.58742 3.5718 7.63889 3.50964 7.70324C3.44748 7.76759 3.39861 7.84355 3.3658 7.92679C3.333 8.01002 3.31691 8.09891 3.31846 8.18836C3.32001 8.27781 3.33916 8.36609 3.37482 8.44814C3.41049 8.53019 3.46196 8.60441 3.52631 8.66657L6.08631 11.2266C6.14828 11.2891 6.22202 11.3387 6.30326 11.3725C6.3845 11.4063 6.47163 11.4238 6.55964 11.4238C6.64765 11.4238 6.73479 11.4063 6.81603 11.3725C6.89727 11.3387 6.971 11.2891 7.03297 11.2266L12.473 5.78657C12.5406 5.72415 12.5946 5.64838 12.6316 5.56404C12.6685 5.47971 12.6876 5.38864 12.6876 5.29657C12.6876 5.20451 12.6685 5.11344 12.6316 5.0291C12.5946 4.94477 12.5406 4.869 12.473 4.80657Z" fill="#1B7A59"/>
</svg>
