<svg width="40" height="40" viewBox="0 0 40 40" fill="none" xmlns="http://www.w3.org/2000/svg">
<path d="M25.8999 18.8159L16.4666 9.39925C16.3116 9.24303 16.1273 9.11904 15.9242 9.03443C15.7211 8.94981 15.5032 8.90625 15.2832 8.90625C15.0632 8.90625 14.8454 8.94981 14.6423 9.03443C14.4392 9.11904 14.2548 9.24303 14.0999 9.39925C13.7895 9.71152 13.6152 10.1339 13.6152 10.5742C13.6152 11.0146 13.7895 11.437 14.0999 11.7492L22.3499 20.0826L14.0999 28.3326C13.7895 28.6449 13.6152 29.0673 13.6152 29.5076C13.6152 29.9479 13.7895 30.3703 14.0999 30.6826C14.2542 30.8401 14.4383 30.9653 14.6414 31.0512C14.8446 31.137 15.0627 31.1817 15.2832 31.1826C15.5037 31.1817 15.7219 31.137 15.925 31.0512C16.1281 30.9653 16.3122 30.8401 16.4666 30.6826L25.8999 21.2659C26.0691 21.1098 26.2041 20.9204 26.2964 20.7096C26.3888 20.4988 26.4364 20.2711 26.4364 20.0409C26.4364 19.8107 26.3888 19.5831 26.2964 19.3722C26.2041 19.1614 26.0691 18.972 25.8999 18.8159Z" fill="#1B7A59"/>
</svg>
