<svg width="22" height="48" viewBox="0 0 22 48" fill="none" xmlns="http://www.w3.org/2000/svg">
<path d="M5.03 13.466H14.366C15.5674 13.466 16.7197 13.9433 17.5692 14.7928C18.4187 15.6423 18.896 16.7946 18.896 17.996V45.83C18.896 46.1562 18.7664 46.4691 18.5357 46.6997C18.3051 46.9304 17.9922 47.06 17.666 47.06H1.73C1.40378 47.06 1.09093 46.9304 0.860258 46.6997C0.629588 46.4691 0.5 46.1562 0.5 45.83V17.996C0.5 16.7946 0.977268 15.6423 1.82681 14.7928C2.67635 13.9433 3.82857 13.466 5.03 13.466Z" stroke="#070707" stroke-miterlimit="10"/>
<path d="M8.204 7.934H11.144C11.4623 7.934 11.7675 8.06043 11.9925 8.28547C12.2176 8.51051 12.344 8.81574 12.344 9.134V13.166H7.004V9.14C7.00321 8.98191 7.03366 8.82522 7.09361 8.67894C7.15357 8.53265 7.24183 8.39966 7.35334 8.28759C7.46485 8.17552 7.5974 8.0866 7.74339 8.02591C7.88937 7.96523 8.04591 7.934 8.204 7.934Z" stroke="#070707" stroke-miterlimit="10"/>
<path d="M10.61 2.384H8.786V7.934H10.61V2.384Z" stroke="#070707" stroke-miterlimit="10"/>
<path d="M9.5 0.5H20.762C20.9344 0.506218 21.0977 0.579121 21.2175 0.703353C21.3372 0.827585 21.4041 0.993446 21.404 1.166V1.718C21.404 1.89463 21.3338 2.06403 21.2089 2.18893C21.084 2.31383 20.9146 2.384 20.738 2.384H9.176C9.07256 2.384 8.97337 2.34291 8.90023 2.26977C8.82709 2.19663 8.786 2.09743 8.786 1.994V1.244C8.786 1.05464 8.86122 0.873026 8.99513 0.739125C9.12903 0.605224 9.31063 0.53 9.5 0.53V0.5Z" stroke="#070707" stroke-miterlimit="10"/>
<path d="M13.466 22.268H5.936C5.25338 22.268 4.7 22.8214 4.7 23.504V40.88C4.7 41.5626 5.25338 42.116 5.936 42.116H13.466C14.1486 42.116 14.702 41.5626 14.702 40.88V23.504C14.702 22.8214 14.1486 22.268 13.466 22.268Z" stroke="#070707" stroke-miterlimit="10"/>
</svg>
