<svg width="61" height="60" viewBox="0 0 61 60" fill="none" xmlns="http://www.w3.org/2000/svg">
<path d="M27.0893 48.649L27.0188 48.6387C27.0188 48.6387 27.0174 48.6387 27.0166 48.6387L27.0893 48.649Z" fill="#070707"/>
<path d="M45.1173 49.1189L52.5 47.5346L46.2825 20.1637C45.8056 18.064 44.398 16.2958 42.4577 15.3621L37.4165 12.9338L36.4218 11.3228L36.4078 11.3043C36.1407 10.9349 35.7914 10.6435 35.3857 10.441C34.7753 10.1362 34.064 10.0109 33.194 9.94485C32.3225 9.88105 31.282 9.88184 30.0004 9.88184C28.2901 9.88254 27.0129 9.87814 25.9879 10.0353C25.4754 10.1154 25.0207 10.237 24.615 10.441C24.2093 10.6435 23.86 10.9349 23.593 11.3043L23.5804 11.3214L22.5843 12.9338L17.5431 15.362C15.6028 16.2957 14.1952 18.0639 13.7183 20.1629L7.5 47.5346L14.8834 49.1189L18.9478 31.3594L19.559 34.4151L17.5031 45.2525C17.4809 45.3698 17.4697 45.4884 17.4697 45.6071C17.4697 45.9994 17.5913 46.3851 17.8227 46.7092C18.1231 47.1305 18.5829 47.4109 19.0948 47.4858L27.0188 48.6387C27.1093 48.652 27.1998 48.6577 27.2888 48.6577C28.1529 48.6577 28.916 48.0681 29.1282 47.2122L29.1304 47.2129L29.6785 45.4202L30.6101 47.1669C30.7799 47.6179 31.0774 47.9828 31.4319 48.2334C31.8139 48.5026 32.2582 48.6555 32.7157 48.657C32.807 48.657 32.8959 48.6503 32.9827 48.6384L40.9054 47.4858C41.4179 47.4109 41.8778 47.1306 42.1781 46.7085C42.4095 46.3852 42.5313 45.9995 42.5313 45.6065C42.5313 45.4878 42.5201 45.3692 42.4979 45.2519L40.4419 34.4152L41.0531 31.3601L45.1173 49.1189ZM41.0152 28.667C40.9513 28.6693 40.9165 28.6773 40.915 28.6766L40.9165 28.6856C40.5754 28.7331 40.2906 28.9807 40.2201 29.3272L39.2032 34.4084L39.942 38.3037L36.4613 38.8474L36.5784 39.598L40.0844 39.0506L41.3037 45.4788L41.3157 45.6064C41.3157 45.7481 41.2718 45.8868 41.1888 46.0024C41.0798 46.156 40.9151 46.2561 40.7297 46.2836L32.8114 47.4354H32.8151L32.7157 47.4421C32.5429 47.4435 32.3204 47.3753 32.1342 47.2418C31.9466 47.1091 31.7982 46.9213 31.7249 46.6952L31.7086 46.6447L30.0599 43.5534L28.6142 40.9331V30.896L30.1199 27.3411L30.1948 27.3151L30.1658 27.2321L34.3623 17.324C34.6144 16.9027 34.7465 16.4287 34.7457 15.9548C34.7464 15.4831 34.6181 15.0106 34.3675 14.5901L34.369 14.5893C34.3661 14.5834 34.3616 14.579 34.3587 14.573C34.355 14.5671 34.3527 14.5611 34.349 14.5552L34.3476 14.5567C33.9945 13.9107 33.4204 13.4382 32.7344 13.1513C32.0342 12.8561 31.2177 12.7292 30.3135 12.7284C30.1801 12.7284 30.0436 12.7321 29.9064 12.7373C29.7677 12.7313 29.6313 12.7284 29.497 12.7284C28.5937 12.7292 27.7763 12.8561 27.0761 13.1513C26.3909 13.439 25.8161 13.91 25.4645 14.556L25.4622 14.5545C25.4578 14.5611 25.4548 14.5693 25.4511 14.576C25.4481 14.5813 25.4445 14.585 25.4423 14.5893L25.4437 14.5901C25.1923 15.0106 25.0647 15.4824 25.0647 15.954C25.0647 16.4228 25.1937 16.8908 25.4407 17.3083L28.8651 27.189L27.3995 30.6497V41.2453L28.8703 43.9109L27.9617 46.8791L27.9565 46.9044C27.8875 47.2218 27.6035 47.4428 27.289 47.4428L27.1874 47.4354H27.1897L19.2708 46.2836C19.086 46.2561 18.9214 46.156 18.8124 46.0032C18.7286 45.8868 18.6848 45.7474 18.6848 45.6072L18.6974 45.4804L19.9175 39.0507L23.4227 39.5981L23.5399 38.8475L20.0591 38.3038L20.7978 34.4085L19.781 29.328C19.7157 29.0046 19.4635 28.7694 19.1542 28.699L19.1557 28.6939C19.0815 28.6708 19.0103 28.6664 18.9754 28.6664H18.974C18.5891 28.6664 18.2568 28.9349 18.1723 29.3058L13.9667 47.6794L8.9574 46.6054L14.9035 20.4321C15.2988 18.6944 16.4648 17.2296 18.0696 16.4567L23.4312 13.8749L24.5816 12.0125C24.7403 11.7989 24.9139 11.652 25.1608 11.526C25.5331 11.3362 26.0961 11.2145 26.8963 11.1567C27.6952 11.0974 28.7186 11.0966 30.0003 11.0966C31.7076 11.0959 32.9618 11.1003 33.8266 11.236C34.2597 11.3028 34.5898 11.4007 34.8398 11.526C35.0868 11.652 35.2603 11.799 35.419 12.0125L36.5693 13.8749L41.931 16.4567C43.536 17.2295 44.702 18.6944 45.0972 20.4321L51.0425 46.6054L46.034 47.68L41.8286 29.3063C41.744 28.9347 41.411 28.6655 41.0268 28.6663C41.0217 28.6663 41.0203 28.667 41.0152 28.667ZM29.5725 25.5185L26.5515 16.8023L26.5115 16.7415C26.3573 16.5012 26.2801 16.2282 26.2801 15.9538C26.2801 15.6898 26.3513 15.4265 26.496 15.1936L26.5056 15.1765L26.516 15.1587C26.7238 14.7715 27.0515 14.4838 27.55 14.2702C28.0461 14.0595 28.7092 13.9424 29.4968 13.9431C29.6215 13.9431 29.7483 13.9461 29.8773 13.952L29.9054 13.9535L29.9321 13.952C30.0627 13.9468 30.1895 13.9439 30.3133 13.9439C31.1018 13.9425 31.7648 14.0595 32.261 14.2702C32.7593 14.4838 33.0872 14.7708 33.2949 15.1587L33.3046 15.1758L33.315 15.1928C33.4588 15.4272 33.5308 15.6897 33.5308 15.9546C33.5308 16.2282 33.4537 16.5011 33.2986 16.7414L33.2704 16.7859L29.5725 25.5185Z" fill="#070707"/>
<path d="M30.5699 30.4141C30.1546 30.4141 29.8179 30.7516 29.8179 31.1654C29.8179 31.5808 30.1547 31.9182 30.5699 31.9182C30.9844 31.9182 31.322 31.5808 31.322 31.1654C31.3219 30.7516 30.9844 30.4141 30.5699 30.4141Z" fill="#070707"/>
<path d="M30.5699 36.9521C30.1546 36.9521 29.8179 37.2888 29.8179 37.7041C29.8179 38.1195 30.1547 38.4561 30.5699 38.4561C30.9844 38.4561 31.322 38.1195 31.322 37.7041C31.3219 37.2888 30.9844 36.9521 30.5699 36.9521Z" fill="#070707"/>
</svg>
