<svg width="61" height="60" viewBox="0 0 61 60" fill="none" xmlns="http://www.w3.org/2000/svg">
<path d="M28.7745 38.7857H10.1857C10.0378 38.7853 9.89453 38.7343 9.77965 38.6412L7.74393 37.013C7.6361 36.9267 7.55854 36.8084 7.52251 36.6751C7.48648 36.5418 7.49385 36.4005 7.54355 36.2716C7.63122 36.0423 9.82301 30.6529 20.9428 28.5599L35.6326 19.8C35.6728 19.776 35.7154 19.7565 35.7598 19.7417C35.9237 19.6908 36.0945 19.6657 36.2661 19.667C36.4898 19.6655 36.7115 19.7097 36.9174 19.7971C37.1234 19.8846 37.3093 20.0132 37.4636 20.1752C37.9535 20.6892 38.164 21.5139 38.1081 22.6965C38.0344 24.2332 38.0436 25.1133 38.0652 25.5868C38.4824 25.6138 39.1038 25.6441 39.7854 25.6441C41.7672 25.6441 42.7118 25.4003 43.1574 25.1951C43.7095 24.9408 44.4335 24.1267 45.1324 23.3396C46.2273 22.1093 47.2611 20.9465 48.3719 20.9465C48.766 20.9485 49.1447 21.0998 49.4317 21.3699C51.1688 22.9489 52.6278 28.426 52.4935 32.8616L52.5026 35.01C52.5031 35.1679 52.4462 35.3206 52.3425 35.4397C52.2389 35.5588 52.0955 35.6362 51.939 35.6574L28.865 38.778C28.8351 38.7826 28.8048 38.7852 28.7745 38.7857ZM10.4141 37.485H28.7306L51.1962 34.4464L51.1899 32.8462C51.3224 28.4626 49.8561 23.5183 48.5535 22.3343C48.5304 22.3084 48.5023 22.2875 48.4708 22.2729C48.4393 22.2584 48.4052 22.2504 48.3705 22.2495C47.844 22.2495 46.8377 23.3805 46.1036 24.2067C45.2784 25.134 44.4995 26.0097 43.7008 26.3787C42.8819 26.7559 41.5658 26.9471 39.7854 26.9471C38.4988 26.9471 37.4472 26.8469 37.4034 26.8426C37.2656 26.8292 37.1357 26.7723 37.0325 26.68C36.9294 26.5877 36.8583 26.465 36.8297 26.3296C36.8027 26.2024 36.6755 25.4278 36.808 22.6368C36.86 21.5525 36.6254 21.183 36.5218 21.0751C36.4896 21.0398 36.45 21.0121 36.4057 20.9939C36.3615 20.9757 36.3138 20.9676 36.2661 20.9701C36.2444 20.9701 36.2246 20.9701 36.2082 20.973L21.5093 29.7401C21.4429 29.7792 21.3702 29.8066 21.2945 29.821C15.8285 30.8326 12.7061 32.6699 11.049 34.0321C10.2328 34.6771 9.53132 35.4552 8.97423 36.3337L10.4141 37.485Z" fill="#070707"/>
<path d="M51.1634 39.329H37.5936C37.4649 39.329 37.339 39.2907 37.232 39.2191C37.125 39.1475 37.0416 39.0458 36.9925 38.9268L36.3137 37.2832C36.2759 37.1912 36.2596 37.0917 36.2662 36.9924C36.2728 36.8931 36.302 36.7966 36.3517 36.7104C36.4014 36.6241 36.4702 36.5504 36.5528 36.4949C36.6354 36.4394 36.7296 36.4036 36.8282 36.3901L51.7612 34.3703C51.8633 34.3565 51.9671 34.3671 52.0643 34.4013C52.1614 34.4354 52.249 34.4922 52.32 34.5668C52.3909 34.6414 52.4431 34.7318 52.4722 34.8306C52.5014 34.9293 52.5067 35.0336 52.4877 35.1348L51.8007 38.7982C51.7729 38.9471 51.694 39.0815 51.5777 39.1784C51.4614 39.2754 51.3149 39.3286 51.1634 39.329ZM38.0306 38.0284H50.6239L51.0454 35.7808L37.8398 37.567L38.0306 38.0284Z" fill="#070707"/>
<path d="M28.7745 38.7857C28.68 38.7859 28.587 38.7659 28.5013 38.7263C28.4155 38.6867 28.3394 38.6289 28.2783 38.5568L20.6802 29.6018C20.625 29.5367 20.583 29.4613 20.5569 29.38C20.5307 29.2987 20.5208 29.213 20.5278 29.1278C20.5348 29.0427 20.5584 28.9598 20.5974 28.8837C20.6364 28.8077 20.69 28.7402 20.7551 28.6849C20.8203 28.6296 20.8956 28.5877 20.977 28.5615C21.0583 28.5354 21.144 28.5255 21.2291 28.5324C21.3143 28.5394 21.3972 28.563 21.4732 28.6021C21.5492 28.6411 21.6168 28.6947 21.6721 28.7598L29.2701 37.7148C29.3504 37.8094 29.4021 37.9249 29.4188 38.0479C29.4356 38.1708 29.4169 38.2961 29.3648 38.4087C29.3127 38.5213 29.2295 38.6167 29.125 38.6836C29.0205 38.7505 28.8986 38.7856 28.7745 38.7857Z" fill="#070707"/>
<path d="M35.9245 26.9129C35.5995 26.9129 35.2389 26.894 34.8426 26.8561C32.1797 26.6022 31.251 25.4842 31.1537 25.358C31.0486 25.2211 31.0023 25.0481 31.0248 24.877C31.0474 24.706 31.1369 24.5509 31.2738 24.4458C31.4107 24.3408 31.5837 24.2945 31.7548 24.317C31.9259 24.3396 32.081 24.4291 32.186 24.566C32.186 24.566 32.8849 25.3623 34.9659 25.5612C36.3085 25.6884 36.7935 25.5415 36.9207 25.4875C37.0025 25.362 37.1251 25.2685 37.2679 25.2229C37.4107 25.1772 37.5648 25.1823 37.7043 25.2372C37.8437 25.292 37.96 25.3934 38.0334 25.524C38.1068 25.6547 38.1328 25.8067 38.1072 25.9543C37.9959 26.5916 37.2632 26.9129 35.9245 26.9129Z" fill="#070707"/>
<path d="M27.233 36.9689H11.233C11.1455 36.9723 11.0582 36.9579 10.9763 36.9267C10.8945 36.8956 10.8198 36.8482 10.7567 36.7875C10.6936 36.7268 10.6434 36.654 10.6091 36.5734C10.5748 36.4928 10.5571 36.4061 10.5571 36.3185C10.5571 36.231 10.5748 36.1443 10.6091 36.0637C10.6434 35.9832 10.6936 35.9103 10.7567 35.8496C10.8198 35.7889 10.8945 35.7415 10.9763 35.7103C11.0582 35.6792 11.1455 35.6649 11.233 35.6682H27.1882L49.4876 32.593C49.5731 32.5794 49.6604 32.5831 49.7445 32.6037C49.8285 32.6243 49.9076 32.6614 49.9772 32.713C50.0467 32.7645 50.1053 32.8294 50.1494 32.9039C50.1936 32.9784 50.2224 33.0609 50.2343 33.1466C50.2461 33.2324 50.2407 33.3196 50.2184 33.4033C50.1962 33.4869 50.1574 33.5652 50.1045 33.6337C50.0516 33.7022 49.9855 33.7595 49.9102 33.8021C49.8348 33.8447 49.7518 33.8719 49.6658 33.8821L27.3216 36.965C27.2922 36.9682 27.2626 36.9695 27.233 36.9689Z" fill="#070707"/>
</svg>
