<svg width="61" height="61" viewBox="0 0 61 61" fill="none" xmlns="http://www.w3.org/2000/svg">
<path d="M3.54657 26.0959L29.7966 41.0959C30.0103 41.2193 30.2528 41.2843 30.4997 41.2843C30.7465 41.2843 30.989 41.2193 31.2028 41.0959L57.4528 26.0959C57.6681 25.9729 57.8471 25.7952 57.9716 25.5808C58.096 25.3663 58.1616 25.1228 58.1616 24.8748C58.1616 24.6269 58.096 24.3833 57.9716 24.1689C57.8471 23.9544 57.6681 23.7767 57.4528 23.6537L31.2028 8.65373C30.989 8.53031 30.7465 8.46533 30.4997 8.46533C30.2528 8.46533 30.0103 8.53031 29.7966 8.65373L3.54657 23.6537C3.33126 23.7767 3.1523 23.9544 3.02782 24.1689C2.90335 24.3833 2.83779 24.6269 2.83779 24.8748C2.83779 25.1228 2.90335 25.3663 3.02782 25.5808C3.1523 25.7952 3.33126 25.9729 3.54657 26.0959ZM30.4997 11.4944L53.9161 24.8748L30.4997 38.2553L7.08328 24.8748L30.4997 11.4944ZM57.9708 33.5467C58.0626 33.707 58.1219 33.8839 58.1453 34.0672C58.1687 34.2504 58.1557 34.4365 58.1072 34.6148C58.0587 34.793 57.9755 34.96 57.8624 35.1061C57.7493 35.2522 57.6085 35.3746 57.4481 35.4662L31.1981 50.4662C30.9844 50.5897 30.7419 50.6546 30.495 50.6546C30.2482 50.6546 30.0057 50.5897 29.7919 50.4662L3.54188 35.4662C3.21802 35.2798 2.98151 34.9723 2.88437 34.6114C2.78724 34.2505 2.83743 33.8659 3.02391 33.542C3.21039 33.2182 3.51788 32.9817 3.87874 32.8845C4.2396 32.7874 4.62427 32.8376 4.94813 33.024L30.495 47.6256L56.0419 33.024C56.2026 32.9308 56.3802 32.8703 56.5645 32.8461C56.7487 32.8219 56.936 32.8345 57.1153 32.8831C57.2947 32.9317 57.4626 33.0154 57.6095 33.1293C57.7563 33.2432 57.8791 33.3851 57.9708 33.5467Z" fill="#343330"/>
</svg>
