<svg width="60" height="61" viewBox="0 0 60 61" fill="none" xmlns="http://www.w3.org/2000/svg">
<path d="M21.214 11.686V13.3476C21.214 13.6177 20.8419 13.6993 20.4495 13.9031C19.2874 14.5249 16.0306 16.2629 16.0306 19.2548V21.1049C16.0306 22.3383 16.0204 23.5717 16 24.8051C16 28.2608 16 31.7113 16.0255 35.172C16.0561 40.4624 16.0917 45.7478 16.0255 51.0485V51.0637M30.429 51.0637V51.023C30.3678 45.7223 30.429 40.437 30.429 35.1465C30.429 31.6858 30.4698 28.2353 30.429 24.7797C30.429 23.5462 30.429 22.3128 30.3984 21.0794V19.2344C30.3984 16.2426 27.1416 14.5046 25.9795 13.8828C25.587 13.6789 25.2201 13.5973 25.2201 13.3272V11.686M16.0306 51.0281C16.0255 51.0976 16.0255 51.1675 16.0306 51.237C16.0404 51.5149 16.105 51.788 16.2205 52.0409C16.336 52.2937 16.5002 52.5214 16.7038 52.7107C16.9073 52.9001 17.1462 53.0474 17.4067 53.1444C17.6673 53.2413 17.9444 53.286 18.2222 53.2757C19.4352 53.2757 20.4138 52.7355 20.4138 51.6091M30.429 51.1096C30.4224 51.6803 30.1935 52.2259 29.7909 52.6305C29.3882 53.035 28.8437 53.2665 28.273 53.2757C27.0651 53.2757 26.0814 52.7355 26.0814 51.6091H25.8011C25.5972 52.7661 24.5167 53.2757 23.217 53.2757C21.9174 53.2757 20.8368 52.761 20.633 51.6091H20.4036M30.4596 24.7848H16M30.4341 35.1516H16.0255M34.5829 45.1005C34.5829 47.4756 34.5829 49.4939 34.5829 51.8741V52.2258C34.5879 52.7304 36.8254 53.5 39.6134 53.5C42.4013 53.5 44.6439 52.6998 44.6439 52.1901C44.6439 52.1646 44.6541 52.1697 44.6439 52.1443C44.598 49.7946 44.6439 47.4501 44.6439 45.1005H34.5829ZM34.5829 45.1005C34.5625 42.1784 34.5625 39.2596 34.5829 36.3442C34.5829 35.3249 34.5829 34.2597 34.5829 33.2148V31.6501C34.5829 29.1017 36.8611 27.6593 37.6715 27.1344C37.9416 26.9611 38.1812 26.8948 38.1812 26.6604V25.2791M41.0252 25.2791V26.6604C41.0252 26.8948 41.2851 26.9611 41.5349 27.1344C42.3452 27.6441 44.6235 29.1221 44.6235 31.6501V33.225C44.6235 34.2699 44.6235 35.3147 44.6235 36.3544C44.6235 39.2698 44.6235 42.1886 44.6235 45.1107M44.6439 51.6448V51.762M44.6643 34.0966H34.5625M26.0661 9.09178V10.9011C26.0629 10.9828 26.0435 11.063 26.0092 11.1372C25.9749 11.2114 25.9263 11.2781 25.8661 11.3335C25.806 11.3889 25.7356 11.4319 25.6588 11.46C25.5821 11.4882 25.5005 11.5009 25.4188 11.4975H21.005C20.9234 11.5009 20.8418 11.4882 20.7651 11.46C20.6883 11.4319 20.6179 11.3889 20.5577 11.3335C20.4976 11.2781 20.449 11.2114 20.4147 11.1372C20.3804 11.063 20.361 10.9828 20.3577 10.9011V9.09178C20.3657 8.92772 20.4382 8.77346 20.5595 8.66269C20.6808 8.55192 20.8409 8.49363 21.005 8.50055H25.4188C25.583 8.49363 25.7431 8.55192 25.8644 8.66269C25.9857 8.77346 26.0582 8.92772 26.0661 9.09178ZM41.5909 24.1324V24.8969C41.5909 25.0345 41.3921 25.1466 41.1424 25.1466H38.0843C37.8346 25.1466 37.6307 25.0345 37.6307 24.8969V24.1324C37.6307 23.9948 37.8346 23.8775 38.0843 23.8775H41.1424C41.3921 23.8775 41.5909 23.9948 41.5909 24.1324Z" stroke="#070707" stroke-miterlimit="10" stroke-linecap="round"/>
</svg>
