<svg width="60" height="60" viewBox="0 0 60 60" fill="none" xmlns="http://www.w3.org/2000/svg">
<path d="M24.53 19.966H33.866C35.0674 19.966 36.2197 20.4433 37.0692 21.2928C37.9187 22.1423 38.396 23.2946 38.396 24.496V52.33C38.396 52.6562 38.2664 52.9691 38.0357 53.1997C37.8051 53.4304 37.4922 53.56 37.166 53.56H21.23C20.9038 53.56 20.5909 53.4304 20.3603 53.1997C20.1296 52.9691 20 52.6562 20 52.33V24.496C20 23.2946 20.4773 22.1423 21.3268 21.2928C22.1763 20.4433 23.3286 19.966 24.53 19.966Z" stroke="#070707" stroke-miterlimit="10"/>
<path d="M27.704 14.434H30.644C30.9623 14.434 31.2675 14.5604 31.4925 14.7855C31.7176 15.0105 31.844 15.3157 31.844 15.634V19.666H26.504V15.64C26.5032 15.4819 26.5337 15.3252 26.5936 15.1789C26.6536 15.0327 26.7418 14.8997 26.8533 14.7876C26.9648 14.6755 27.0974 14.5866 27.2434 14.5259C27.3894 14.4652 27.5459 14.434 27.704 14.434Z" stroke="#070707" stroke-miterlimit="10"/>
<path d="M30.11 8.884H28.286V14.434H30.11V8.884Z" stroke="#070707" stroke-miterlimit="10"/>
<path d="M29 7H40.262C40.4344 7.00622 40.5977 7.07912 40.7175 7.20335C40.8372 7.32758 40.9041 7.49345 40.904 7.666V8.218C40.904 8.39463 40.8338 8.56403 40.7089 8.68893C40.584 8.81383 40.4146 8.884 40.238 8.884H28.676C28.5726 8.884 28.4734 8.84291 28.4002 8.76977C28.3271 8.69663 28.286 8.59743 28.286 8.494V7.744C28.286 7.55464 28.3612 7.37303 28.4951 7.23913C28.629 7.10522 28.8106 7.03 29 7.03V7Z" stroke="#070707" stroke-miterlimit="10"/>
<path d="M32.966 28.768H25.436C24.7534 28.768 24.2 29.3214 24.2 30.004V47.38C24.2 48.0626 24.7534 48.616 25.436 48.616H32.966C33.6486 48.616 34.202 48.0626 34.202 47.38V30.004C34.202 29.3214 33.6486 28.768 32.966 28.768Z" stroke="#070707" stroke-miterlimit="10"/>
</svg>
