<svg width="38" height="47" viewBox="0 0 38 47" fill="none" xmlns="http://www.w3.org/2000/svg">
<path d="M17.1086 11.7709C16.903 11.7709 16.7055 11.6903 16.5587 11.5464C16.4118 11.4025 16.3273 11.2067 16.3231 11.0012V6.43519C13.8978 6.80689 11.63 7.8666 9.78895 9.48856C7.94785 11.1105 6.61074 13.2266 5.93628 15.5857C5.26182 17.9449 5.27834 20.448 5.98387 22.798C6.68941 25.148 8.05434 27.2463 9.91668 28.8438C11.779 30.4413 14.0606 31.471 16.4906 31.8107C18.9206 32.1503 21.3971 31.7857 23.6261 30.7601C25.8551 29.7344 27.743 28.0908 29.0659 26.0243C30.3888 23.9579 31.091 21.5552 31.0893 19.1016C31.088 16.0966 30.0314 13.1875 28.104 10.8821C26.1766 8.57664 23.5007 7.0213 20.5435 6.48755V10.9802C20.5463 11.0046 20.5463 11.0292 20.5435 11.0535M17.1086 11.7709H19.7633M17.1086 11.7709C16.9012 11.7709 16.7022 11.6889 16.555 11.5427C16.4079 11.3965 16.3245 11.1981 16.3231 10.9907C14.8001 11.3583 13.4112 12.1472 12.3155 13.2671C11.2198 14.3871 10.4614 15.7928 10.1271 17.3236C9.79286 18.8543 9.89621 20.4482 10.4253 21.923C10.9545 23.3977 11.888 24.6938 13.1192 25.6628C14.3504 26.6319 15.8295 27.2348 17.3873 27.4027C18.9451 27.5705 20.5187 27.2965 21.928 26.612C23.3374 25.9275 24.5256 24.8601 25.3568 23.5319C26.188 22.2037 26.6285 20.6684 26.628 19.1016C26.6319 17.2797 26.0392 15.5066 24.9405 14.0533C23.8418 12.6001 22.2975 11.5464 20.5435 11.0535M17.1086 11.7709C17.005 11.7709 16.9024 11.7504 16.8068 11.7106C16.7111 11.6708 16.6243 11.6125 16.5513 11.539C16.4783 11.4655 16.4206 11.3783 16.3814 11.2824C16.3423 11.1865 16.3224 11.0838 16.3231 10.9802V1.78543C16.3231 1.57712 16.4059 1.37734 16.5532 1.23005C16.7005 1.08275 16.9003 1 17.1086 1H19.7633C19.9716 1 20.1714 1.08275 20.3187 1.23005C20.466 1.37734 20.5488 1.57712 20.5488 1.78543V11.0012C20.5516 11.0255 20.5516 11.0501 20.5488 11.0745C20.5279 11.2675 20.4359 11.4457 20.2907 11.5745C20.1454 11.7033 19.9574 11.7733 19.7633 11.7709M19.7633 11.7709C19.9598 11.7715 20.1493 11.698 20.2939 11.565C20.4386 11.432 20.5277 11.2494 20.5435 11.0535M35.6762 19.1016C35.6762 21.389 35.2253 23.654 34.3493 25.7671C33.4733 27.8801 32.1894 29.7998 30.5709 31.4163C28.9525 33.0328 27.0313 34.3144 24.9172 35.1879C22.8031 36.0613 20.5375 36.5095 18.2501 36.5067C13.828 36.4673 9.58681 34.7462 6.38786 31.6929C3.18891 28.6396 1.27212 24.4831 1.02682 20.0677C0.781519 15.6523 2.22611 11.3091 5.06716 7.92028C7.90822 4.53143 11.9327 2.35108 16.3231 1.82208V6.45089C13.1475 6.9417 10.2724 8.60827 8.26823 11.12C6.26403 13.6316 5.27718 16.8049 5.50345 20.0103C5.72973 23.2156 7.1526 26.2188 9.48977 28.424C11.827 30.6292 14.9077 31.8753 18.1207 31.9152C21.3338 31.955 24.4444 30.7856 26.8356 28.6389C29.2267 26.4923 30.7235 23.5253 31.0291 20.3266C31.3348 17.1278 30.4268 13.9311 28.4855 11.3705C26.5442 8.8099 23.7112 7.0726 20.5488 6.50326V1.82208C24.7373 2.37722 28.5811 4.43608 31.3642 7.61509C34.1473 10.7941 35.6798 14.8765 35.6762 19.1016ZM35.1316 24.8143V36.6324H30.906V31.0716C32.7722 29.1076 34.1514 26.733 34.9326 24.1388C35.066 24.3386 35.1354 24.5741 35.1316 24.8143ZM35.5767 39.0568L34.2467 45.4921V45.5392C34.2313 45.6669 34.1693 45.7845 34.0728 45.8695C33.9762 45.9545 33.8517 46.0009 33.7231 46H32.058C31.9191 46 31.7859 45.9448 31.6877 45.8466C31.5895 45.7484 31.5343 45.6152 31.5343 45.4764L30.4557 39.0568H35.5767ZM36.6868 37.4283V38.3028C36.6868 38.4045 36.6667 38.5053 36.6278 38.5993C36.5888 38.6933 36.5317 38.7788 36.4598 38.8507C36.3878 38.9227 36.3024 38.9798 36.2084 39.0187C36.1143 39.0577 36.0136 39.0777 35.9118 39.0777H30.1153C30.0138 39.0777 29.9133 39.0576 29.8195 39.0186C29.7258 38.9796 29.6407 38.9225 29.5692 38.8504C29.4976 38.7784 29.441 38.6929 29.4027 38.5989C29.3643 38.5049 29.3449 38.4043 29.3456 38.3028V37.4283C29.3456 37.2237 29.4265 37.0274 29.5707 36.8822C29.7149 36.737 29.9107 36.6547 30.1153 36.6533H35.9118C36.1173 36.6533 36.3145 36.735 36.4598 36.8803C36.6051 37.0257 36.6868 37.2228 36.6868 37.4283Z" stroke="#070707" stroke-miterlimit="10"/>
</svg>
