<svg width="60" height="61" viewBox="0 0 60 61" fill="none" xmlns="http://www.w3.org/2000/svg">
<path d="M35.653 8V11.5083M37.2855 8V11.5083M38.8604 8.14085V11.6556M24.3918 27.8848V50.9834C24.3918 51.5182 24.1793 52.0311 23.8011 52.4093C23.423 52.7875 22.91 53 22.3752 53H7.01024C6.47651 52.9983 5.96521 52.7851 5.5884 52.4071C5.21159 52.0291 5 51.5171 5 50.9834V27.8848C5 27.6793 5.08161 27.4823 5.22689 27.337C5.37216 27.1917 5.5692 27.1101 5.77465 27.1101H8.06018C8.26563 27.1101 8.46266 27.1917 8.60794 27.337C8.75321 27.4823 8.83483 27.6793 8.83483 27.8848V36.2074H20.5506V27.8848C20.5506 27.783 20.5706 27.6823 20.6095 27.5883C20.6485 27.4943 20.7055 27.4089 20.7775 27.337C20.8494 27.2651 20.9348 27.208 21.0288 27.1691C21.1228 27.1302 21.2235 27.1101 21.3252 27.1101H23.6172C23.8226 27.1101 24.0196 27.1917 24.1649 27.337C24.3102 27.4823 24.3918 27.6793 24.3918 27.8848ZM55.4417 24.0948V35.9321C55.4736 36.3823 55.3269 36.8268 55.0333 37.1696C54.7397 37.5123 54.3229 37.7255 53.8732 37.7631H31.5941C31.1428 37.7271 30.7238 37.5147 30.4278 37.1721C30.1318 36.8294 29.9828 36.3839 30.0128 35.9321V13.3393C29.9828 12.8875 30.1318 12.4421 30.4278 12.0994C30.7238 11.7567 31.1428 11.5444 31.5941 11.5083H44.5647L55.4417 24.0948ZM35.1088 8H39.4046C39.7442 8 40.0699 8.1349 40.31 8.37502C40.5501 8.61515 40.685 8.94082 40.685 9.28041V11.265H33.8284V9.28041C33.8284 8.94082 33.9633 8.61515 34.2035 8.37502C34.4436 8.1349 34.7693 8 35.1088 8ZM43.3421 16.7896L43.6519 16.5214C44.1464 16.0933 44.8944 16.1472 45.3225 16.6417L50.8952 23.0796C51.3233 23.5741 51.2694 24.3221 50.7748 24.7502L50.4651 25.0184C49.9705 25.4465 49.2225 25.3926 48.7944 24.898L43.2217 18.4602C42.7936 17.9656 42.8475 17.2177 43.3421 16.7896Z" stroke="#070707" stroke-miterlimit="10"/>
</svg>
