<svg width="60" height="60" viewBox="0 0 60 60" fill="none" xmlns="http://www.w3.org/2000/svg">
<path d="M25.6217 19.2336V16.6394C25.6226 16.3862 25.6445 16.1334 25.6872 15.8838C25.8227 14.9476 26.2844 14.0892 26.9908 13.4601C27.6973 12.8309 28.6031 12.4713 29.5487 12.4447H45.8696C46.9461 12.4835 47.9632 12.9474 48.6982 13.7348C49.4332 14.5222 49.826 15.5688 49.7907 16.6454V19.2396C49.826 20.3155 49.433 21.3616 48.6978 22.148C47.9627 22.9345 46.9455 23.3971 45.8696 23.4343H43.0791M38.8427 19.0492C38.8903 18.2173 39.2647 17.4378 39.8843 16.8806C40.5039 16.3234 41.3186 16.0336 42.1509 16.0742H46.4825C47.3148 16.0336 48.1294 16.3234 48.749 16.8806C49.3686 17.4378 49.743 18.2173 49.7907 19.0492V23.1368C49.7446 23.9693 49.3706 24.7497 48.7507 25.3072C48.1307 25.8647 47.3152 26.154 46.4825 26.1119H42.5138M42.5138 26.1119L39.2294 51.9885C39.1945 52.2682 39.0585 52.5256 38.8469 52.7119C38.6354 52.8982 38.363 53.0007 38.0811 53H20.231C19.9474 52.9957 19.6746 52.8902 19.4619 52.7026C19.2491 52.5149 19.1104 52.2575 19.0707 51.9766L15.6673 22.2265L15.6257 21.9171M42.5138 26.1119L43.0077 22.2384L43.0493 21.929V21.7802M20.7367 19.186L12.496 10.9393C12.2597 10.7 12.0987 10.3967 12.0331 10.0668C11.9674 9.73698 11.9999 9.39513 12.1266 9.08358C12.2532 8.77203 12.4685 8.50445 12.7456 8.31397C13.0228 8.12349 13.3497 8.01847 13.686 8.0119V8C14.1335 8.00672 14.5606 8.18824 14.876 8.50575L23.206 16.8358L25.586 19.186M21.9803 40.3919C22.576 41.8561 23.5947 43.1094 24.9063 43.9918C26.2179 44.8741 27.7627 45.3454 29.3434 45.3454C30.9242 45.3454 32.469 44.8741 33.7806 43.9918C35.0922 43.1094 36.1109 41.8561 36.7066 40.3919M22.0457 34.2277C22.6619 32.8047 23.6808 31.593 24.9769 30.7418C26.2731 29.8906 27.7898 29.4371 29.3405 29.4371C30.8911 29.4371 32.4079 29.8906 33.704 30.7418C35.0002 31.593 36.019 32.8047 36.6352 34.2277M22.2897 34.2277H17.2798M22.3194 40.386H17.8212M40.4849 40.386H36.3139M41.2108 34.2277H36.3139M44.7153 19.1027H14.7927C14.6074 19.1006 14.4236 19.1365 14.2527 19.2081C14.0818 19.2797 13.9274 19.3856 13.799 19.5192C13.6676 19.649 13.5636 19.8038 13.493 19.9745C13.4225 20.1451 13.387 20.3282 13.3885 20.5129C13.39 20.8843 13.5387 21.2399 13.8019 21.502C14.065 21.764 14.4213 21.9111 14.7927 21.9111H44.7153C45.0857 21.9096 45.4404 21.7618 45.7023 21.4999C45.9642 21.238 46.112 20.8832 46.1136 20.5129C46.1144 20.3285 46.0788 20.1457 46.009 19.9751C45.9391 19.8044 45.8363 19.6492 45.7065 19.5182C45.5767 19.3873 45.4223 19.2832 45.2522 19.2119C45.0822 19.1406 44.8997 19.1035 44.7153 19.1027Z" stroke="#070707" stroke-miterlimit="10"/>
</svg>
