<svg width="61" height="60" viewBox="0 0 61 60" fill="none" xmlns="http://www.w3.org/2000/svg">
<path d="M22 30.595H29.2658M22 34.0244H26.5635M22 37.4592H26.5635M22 44.0629H26.5635M22 40.8886H29.2658M24.9953 16.2588C25.425 15.4831 26.0085 14.8034 26.7102 14.2613C27.4119 13.7192 28.2169 13.3261 29.0758 13.1061C28.8182 12.5599 28.6865 11.9628 28.6906 11.3589C28.6906 9.49765 29.8681 8 31.3223 8C32.7766 8 33.9595 9.49765 33.9595 11.3589C33.9635 11.9628 33.8319 12.5599 33.5742 13.1061C34.4332 13.3261 35.2382 13.7192 35.9399 14.2613C36.6415 14.8034 37.2251 15.4831 37.6548 16.2588M40.6501 27.2307V48.1164C40.6501 50.8295 39.109 53 37.199 53H25.4565C23.5465 53 22 50.8295 22 48.1164V27.2307C22 24.3222 23.0853 21.761 24.6751 20.2959H37.9803C39.5865 21.761 40.6501 24.3222 40.6501 27.2307ZM39.7547 16.9533V19.6665C39.77 19.8273 39.7218 19.9877 39.6204 20.1134C39.519 20.2391 39.3725 20.3202 39.2121 20.3393H23.4759C23.3156 20.3202 23.169 20.2391 23.0676 20.1134C22.9662 19.9877 22.918 19.8273 22.9333 19.6665V16.9533C22.9178 16.7913 22.9657 16.6296 23.0669 16.5021C23.168 16.3747 23.3147 16.2913 23.4759 16.2696H39.2121C39.3734 16.2913 39.52 16.3747 39.6212 16.5021C39.7223 16.6296 39.7702 16.7913 39.7547 16.9533Z" stroke="#070707" stroke-miterlimit="10" stroke-linecap="round"/>
</svg>
