<svg width="45" height="51" viewBox="0 0 45 51" fill="none" xmlns="http://www.w3.org/2000/svg">
<path fill-rule="evenodd" clip-rule="evenodd" d="M3.75759 8.93422C3.70267 9.04144 3.57357 9.65802 3.47059 10.3044C3.36762 10.9509 3.20461 11.9143 3.10831 12.4454C2.58518 15.3314 2.16214 18.7081 2.1955 19.7306C2.23366 20.8972 2.44765 22.7954 2.63195 23.6019C2.84728 24.5445 3.15539 25.2012 3.15539 25.2012L3.69444 26.4123C3.69444 26.4123 4.35158 27.8003 5.03397 28.68C5.74652 29.5986 6.31684 30.1549 7.37317 30.9618C8.50486 31.8263 10.9659 33.18 12.3708 33.7106C12.6865 33.8298 12.9903 33.9448 13.046 33.9661C13.2787 34.0551 14.1466 34.3179 14.8122 34.5009C15.6332 34.7266 17.1598 35.3924 17.7356 35.7758C17.952 35.92 18.3259 36.1953 18.5662 36.3876C18.8723 36.6326 19.0065 36.7063 19.0142 36.6335C19.0203 36.5764 18.9662 36.5257 18.9372 36.456C18.6988 35.884 18.8155 35.791 18.5087 34.928C17.9643 33.3965 17.3454 31.4815 17.3187 31.4285C17.3187 31.4285 16.9461 30.4787 16.8218 30.2964C16.6976 30.1142 16.4481 29.7197 16.2675 29.4199C16.0868 29.1201 15.8831 28.7959 15.8148 28.6996C15.7465 28.6032 15.6242 28.415 15.5431 28.2814C15.2264 27.7599 14.9526 27.4054 14.9526 27.4054C14.9526 27.4054 14.8508 27.2469 14.7134 27.0654C14.3791 26.6239 14.2169 26.4011 13.8356 25.8594C13.4262 25.2777 13.3206 25.1302 13.0218 24.7231C12.7191 24.3106 12.8095 24.1924 13.1538 24.5506C13.2993 24.702 13.7478 25.1474 14.1504 25.5402C15.9516 27.2976 18.2601 30.4931 19.391 32.7942C19.5477 33.1132 19.7612 33.5384 19.8655 33.7394C19.9698 33.9403 20.053 34.1234 20.0506 34.1463C20.045 34.1991 21.1428 36.9296 21.2893 37.2273C21.3919 37.4357 21.3977 37.4385 21.3797 37.272C21.3259 36.7747 21.3616 34.4151 21.439 33.3412C21.5429 31.9027 21.5647 31.3925 21.5887 29.8417C21.6127 28.2878 21.5596 27.856 21.12 26.0365C21.0108 25.5845 20.7675 24.8894 20.6931 24.8226C20.6826 24.7911 20.6454 24.7324 20.619 24.6766C20.6036 24.617 20.3907 24.229 20.1459 23.8143C19.901 23.3997 19.6282 22.9119 19.5396 22.7304C19.135 21.9017 18.3511 20.8148 17.6754 20.1454C17.3807 19.8534 16.4694 19.1032 16.4007 19.0959C16.3783 19.0935 16.2251 18.9889 16.0604 18.8634C15.8956 18.7378 15.5217 18.5052 15.2295 18.3464C14.9373 18.1875 14.6243 18.0095 14.5339 17.9508C14.4436 17.892 14.1132 17.7292 13.7997 17.589C13.4862 17.4487 13.201 17.3067 13.1659 17.2734C13.1308 17.2401 12.0018 16.7105 10.6569 16.0966C8.11948 14.9383 7.22438 14.441 6.26915 13.659C5.70245 13.195 5.14846 12.5635 4.97788 12.1871C4.72291 11.6244 4.36686 10.5974 4.34531 10.3622C4.31247 10.005 4.03702 8.97636 3.93986 8.84813C3.86937 8.75515 3.84282 8.76772 3.75759 8.93422Z" fill="#94B9AB"/>
<path fill-rule="evenodd" clip-rule="evenodd" d="M26.9192 0.468051C26.9056 0.597874 26.9114 1.286 26.9321 1.99728C26.978 3.57915 26.902 4.11893 26.5061 5.02475C26.266 5.5741 26.0893 5.84199 25.5578 6.46259C25.1985 6.88211 24.5167 7.57799 24.0426 8.00909C23.0999 8.8663 22.6533 9.37827 22.2241 9.91402C21.587 10.7092 20.1355 13.1971 19.7216 15.2716C19.4654 16.5564 19.4588 17.8606 19.7035 18.87C20.1878 20.8678 20.892 22.7985 21.4944 23.7805C21.97 24.5556 22.0765 24.7682 22.4341 25.6559L22.7102 26.3413L22.7325 25.955C22.7447 25.7426 22.7702 24.9536 22.7893 24.2017C22.8399 22.2026 22.8651 21.977 23.2916 19.6942C23.4377 18.9125 23.7624 17.741 23.9844 17.1946C24.1175 16.8669 24.3669 16.2448 24.5385 15.8121C24.7101 15.3794 24.8524 15.0499 24.8546 15.0798C24.8568 15.1098 24.7205 15.7786 24.5517 16.5662C24.3827 17.3538 24.137 18.7128 24.0055 19.5862C23.7791 21.0898 23.7685 21.2503 23.806 22.6083C23.8417 23.9036 23.9835 25.1453 24.1177 25.3389C24.1397 25.3706 24.2505 25.2735 24.364 25.1231C25.7223 23.3231 26.6521 22.3184 28.3482 20.8179C30.2706 19.117 31.1813 17.9026 32.0065 15.9394C32.4045 14.9927 32.5175 13.4597 32.3357 11.4764C32.1829 9.81104 31.6649 8.29197 30.4598 5.97526C30.1322 5.3455 29.1287 3.5998 28.8391 3.156C28.6813 2.91411 28.2007 2.1678 27.7712 1.49753C27.3417 0.827271 26.9798 0.268371 26.967 0.255469C26.9542 0.242567 26.9327 0.338228 26.9192 0.468051Z" fill="#1B7A59"/>
<path fill-rule="evenodd" clip-rule="evenodd" d="M43.1942 14.4825C42.9652 15.1219 42.425 15.9665 41.9737 16.3907C41.466 16.8677 39.6592 17.9778 38.9828 18.2282C38.6865 18.3378 37.8243 18.573 37.0669 18.7507C35.1266 19.206 34.0472 19.5191 32.8755 19.9669C31.6514 20.4346 31.0546 20.7464 29.4824 21.7398C28.2183 22.5385 28.061 22.6819 27.329 23.7034C26.3283 25.0999 25.7444 26.1981 25.5061 27.1316C24.9136 29.453 24.5485 31.0445 24.299 32.3935C24.1409 33.248 23.9707 34.1417 23.9206 34.3795C23.8579 34.6775 23.8534 34.8068 23.9064 34.7959C24.0448 34.7673 24.9731 33.3493 24.9731 33.3493C24.9731 33.3493 25.7096 32.1854 26.6288 31.2262C27.4497 30.4247 28.1891 29.5725 28.1891 29.5725C28.1891 29.5725 30.1877 27.6639 30.8595 27.2496C31.1248 27.0861 31.6903 26.7216 32.1163 26.4398C32.5423 26.1579 32.9057 25.9452 32.9239 25.9671C32.9595 26.0096 32.5541 26.3741 30.6437 28.0171C30.0182 28.555 29.5836 29.0032 29.1457 29.5621C27.5708 31.572 26.8673 32.6852 26.2586 34.131C25.9599 34.8403 25.9093 35.0302 26.0645 34.8601C26.2935 34.6089 27.0695 34.4169 28.6456 34.2215C29.1052 34.1645 29.7621 34.0477 30.1054 33.9618C30.4488 33.876 31.1298 33.7462 31.6189 33.6732C34.2943 33.2739 36.5055 32.6089 37.9963 31.755C39.2584 31.0323 40.0208 30.3956 40.8677 29.3574C41.9425 28.0396 42.6773 26.5544 43.0971 25.0149C43.6067 23.5634 43.7803 18.2387 43.7713 17.4959C43.7605 16.6082 43.4084 14.0879 43.3796 14.0535C43.3674 14.0389 43.284 14.2319 43.1942 14.4825Z" fill="#2073E3"/>
<path fill-rule="evenodd" clip-rule="evenodd" d="M5.56765 34.8106C5.7908 35.0729 6.16585 35.7658 6.16585 35.7658C6.16585 35.7658 6.20519 35.8433 6.32721 36.0836C6.97474 37.358 7.87307 38.0338 9.71166 38.6294C10.7885 38.9783 11.5685 39.079 13.6055 39.1326L15.1945 39.1743L15.0784 38.9364C14.9131 38.5972 14.3681 37.9218 13.9091 37.4874C13.6929 37.2829 13.4705 37.066 13.4705 37.066C13.4705 37.066 13.2127 36.8214 12.9121 36.533C12.6116 36.2445 12.3919 36.0648 12.4391 36.0076C12.4922 35.8826 12.7104 35.9755 12.7104 35.9755C12.7104 35.9755 14.0049 36.349 14.2113 36.4556C14.3102 36.5067 14.5641 36.6041 14.7754 36.672C14.9867 36.74 15.3167 36.8666 15.5088 36.9534C15.7008 37.0401 16.2037 37.2581 16.6263 37.4377C17.8018 37.9375 17.8566 37.9639 18.2676 38.2291C19.1053 38.7694 19.6016 39.2321 20.4004 40.2172C20.5907 40.4519 21.0262 41.3906 21.0262 41.3906C21.0262 41.3906 21.4229 42.5529 21.5138 43.068C21.6271 43.7104 21.6837 45.4222 21.7266 49.5001C21.7522 51.9418 21.7175 49.7116 21.7317 50H18.499C16.9913 50.0035 17.3424 50.034 17.29 50C17.3549 49.544 17.4012 48.0161 17.452 46.0394C17.4768 45.078 17.4098 44.6372 17.165 44.1517C16.9821 43.7889 16.5118 43.2564 16.2087 43.0689C16.0432 42.9666 15.9532 42.9017 15.9532 42.9017C15.9532 42.9017 15.8747 42.8439 15.6945 42.768C15.5718 42.7164 15.4968 42.6751 15.4968 42.6751C15.4968 42.6751 15.4342 42.6403 15.4 42.6293C15.3197 42.6036 15.272 42.5567 15.2068 42.5329C15.1132 42.4895 14.7282 42.3955 14.2865 42.2345C13.261 41.861 12.7807 41.709 12.0864 41.5383C11.0537 41.2845 10.3556 41.0592 10.3556 41.0592C10.3556 41.0592 9.07719 40.7405 8.5338 40.4108C7.86364 40.0043 6.90459 38.7728 6.90459 38.7728C6.90459 38.7728 6.71064 38.5044 6.64407 38.3779C6.57772 38.2518 6.44448 38.0272 6.25471 37.7196C6.06494 37.412 5.85208 37.0394 5.85208 37.0394L5.55773 36.4667L5.47023 36.2934C5.47023 36.2934 5.33255 36.0538 5.2143 35.7695C5.01329 35.2863 4.94332 35.0626 5.03049 34.8106C5.13309 34.5138 5.39883 34.6122 5.56765 34.8106Z" fill="#7C7C7C"/>
<path fill-rule="evenodd" clip-rule="evenodd" d="M40.905 34.8106C40.6819 35.0729 40.3068 35.7658 40.3068 35.7658C40.3068 35.7658 40.2675 35.8433 40.1454 36.0836C39.4979 37.358 38.5996 38.0338 36.761 38.6294C35.6842 38.9783 34.9041 39.079 32.8672 39.1326L31.2782 39.1743L31.3942 38.9364C31.5596 38.5972 32.1046 37.9218 32.5635 37.4874C32.7797 37.2829 33.0022 37.066 33.0022 37.066C33.0022 37.066 33.26 36.8214 33.5605 36.533C33.8611 36.2445 34.0807 36.0648 34.0336 36.0076C33.9804 35.8826 33.7622 35.9755 33.7622 35.9755C33.7622 35.9755 32.4678 36.349 32.2614 36.4556C32.1624 36.5067 31.9085 36.6041 31.6973 36.672C31.486 36.74 31.156 36.8666 30.9639 36.9534C30.7718 37.0401 30.2689 37.2581 29.8464 37.4377C28.6709 37.9375 28.6161 37.9639 28.205 38.2291C27.3674 38.7694 26.8711 39.2321 26.0723 40.2172C25.8819 40.4519 25.4465 41.3906 25.4465 41.3906C25.4465 41.3906 25.0497 42.5529 24.9589 43.068C24.8456 43.7104 24.7889 45.4222 24.7461 49.5001C24.7204 51.9418 24.7552 49.7116 24.7409 50H27.9736C29.4814 50.0035 29.1302 50.034 29.1826 50C29.1177 49.544 29.0715 48.0161 29.0206 46.0394C28.9958 45.078 29.0629 44.6372 29.3077 44.1517C29.4906 43.7889 29.9609 43.2564 30.2639 43.0689C30.4295 42.9666 30.5195 42.9017 30.5195 42.9017C30.5195 42.9017 30.598 42.8439 30.7782 42.768C30.9008 42.7164 30.9759 42.6751 30.9759 42.6751C30.9759 42.6751 31.0384 42.6403 31.0726 42.6293C31.1529 42.6036 31.2007 42.5567 31.2658 42.5329C31.3595 42.4895 31.7444 42.3955 32.1862 42.2345C33.2117 41.861 33.692 41.709 34.3863 41.5383C35.4189 41.2845 36.1171 41.0592 36.1171 41.0592C36.1171 41.0592 37.3955 40.7405 37.9389 40.4108C38.609 40.0043 39.5681 38.7728 39.5681 38.7728C39.5681 38.7728 39.762 38.5044 39.8286 38.3779C39.8949 38.2518 40.0282 38.0272 40.2179 37.7196C40.4077 37.412 40.6206 37.0394 40.6206 37.0394L40.9149 36.4667L41.0024 36.2934C41.0024 36.2934 41.1401 36.0538 41.2584 35.7695C41.4594 35.2863 41.5293 35.0626 41.4422 34.8106C41.3396 34.5138 41.0738 34.6122 40.905 34.8106Z" fill="#7C7C7C"/>
</svg>
