<svg width="61" height="60" viewBox="0 0 61 60" fill="none" xmlns="http://www.w3.org/2000/svg">
<path d="M9.23244 15.7258L30.6651 8.09464C31.0135 7.96845 31.3951 7.96845 31.7436 8.09464L52.7803 15.835M11.2119 16.8247L30.6173 9.91027C30.9657 9.78409 31.3474 9.78409 31.6958 9.91027L50.4528 16.8247M9.38943 28.756C9.33026 28.7242 9.26385 28.7082 9.19668 28.7097C9.12951 28.7111 9.06386 28.73 9.00613 28.7643C8.9484 28.7987 8.90055 28.8474 8.86724 28.9058C8.83393 28.9641 8.8163 29.0301 8.81607 29.0973V42.7487M9.25291 15.835L9.328 15.8759L31.3408 27.2339C31.532 27.3294 30.6583 27.384 30.5559 27.5752M52.6848 42.6599V42.776H52.439L52.6848 42.6599ZM52.6848 42.6599V28.5376M8.81607 42.776L29.573 52.8438C29.7859 52.9466 30.0192 53 30.2556 53C30.4919 53 30.7253 52.9466 30.9381 52.8438L52.6984 42.6053M30.0917 28.6331L27.2523 33.9572C27.0247 34.3875 26.7145 34.7687 26.3393 35.079C25.9641 35.3892 25.5314 35.6223 25.066 35.765C24.6006 35.9077 24.1116 35.9571 23.627 35.9104C23.1424 35.8637 22.6718 35.7219 22.2422 35.493L8.91163 28.4557L5.43053 26.6059C5.24497 26.51 5.08012 26.3785 4.94539 26.2189C4.81066 26.0593 4.70869 25.8747 4.64531 25.6757C4.58192 25.4766 4.55836 25.2671 4.57598 25.0589C4.59359 24.8508 4.65203 24.6482 4.74796 24.4626L9.32117 15.835L29.4296 26.4899C29.6141 26.5869 29.7776 26.7193 29.9107 26.8796C30.0439 27.0399 30.1441 27.2249 30.2056 27.4241C30.2671 27.6232 30.2887 27.8325 30.2692 28.0399C30.2496 28.2474 30.1893 28.449 30.0917 28.6331ZM56.1317 22.6743C56.5685 23.5029 56.6593 24.4708 56.3843 25.3662C56.1093 26.2616 55.4908 27.0117 54.6642 27.4523L52.7803 28.4966L39.3201 35.6022C38.5215 36.0244 37.5881 36.1127 36.7244 35.8479C35.8608 35.583 35.1374 34.9866 34.7127 34.1892L31.7367 28.5717C31.6408 28.3862 31.5824 28.1835 31.5647 27.9754C31.5471 27.7673 31.5707 27.5577 31.6341 27.3587C31.6975 27.1597 31.7994 26.9751 31.9342 26.8155C32.0689 26.6558 32.2337 26.5243 32.4193 26.4284L43.7909 20.3945L52.5619 15.8964L52.7872 16.3128L56.1317 22.6743Z" stroke="#070707" stroke-miterlimit="10" stroke-linecap="round"/>
</svg>
