<svg width="61" height="61" viewBox="0 0 61 61" fill="none" xmlns="http://www.w3.org/2000/svg">
<path d="M28.3779 36.9265H51.2572V11.843L46.6484 8H28.3779V36.9265ZM28.3779 36.9265V11.7428L12.4117 20.9604L14.8378 25.1613M28.3779 36.9265H42.605L41.8535 37.3559M41.8535 37.3559L26.875 46.0081L14.8378 25.1613M41.8535 37.3559L44.2796 41.5568L24.4633 53L10 27.9523L14.8378 25.1613M46.6484 8.1646V11.9719H51.2572M31.7987 14.8702H47.8292M33.7238 32.2462H45.9041M31.7987 29.3478H47.8292M34.9618 26.4566H44.6732M33.3015 23.5582H46.3335M31.7987 20.6598H47.8292M34.468 17.7686H45.167" stroke="#070707" stroke-miterlimit="10" stroke-linecap="round"/>
</svg>
