<svg width="75" height="61" viewBox="0 0 75 61" fill="none" xmlns="http://www.w3.org/2000/svg">
<path d="M41.051 47.9248L43.6772 41.9715L46.2954 47.9248H41.051ZM41.051 47.9248L33.2207 47.9248M41.051 47.9248L37.1359 39.0473L33.2207 47.9248M33.2207 47.9248H17.5682L25.3904 30.1697L33.2207 47.9248ZM57.7266 17.7476V35.8733H67.4823C67.76 35.8733 68.0264 35.7629 68.2228 35.5665C68.4192 35.3701 68.5295 35.1037 68.5295 34.826V9.04726C68.5295 8.76951 68.4192 8.50314 68.2228 8.30674C68.0264 8.11034 67.76 8 67.4823 8H24.3835C24.1057 8 23.8393 8.11034 23.6429 8.30674C23.4465 8.50314 23.3362 8.76951 23.3362 9.04726V16.7003H56.6794M57.7266 17.7476C57.7266 17.4698 57.6163 17.2035 57.4199 17.0071M57.7266 17.7476L57.7266 43.5263C57.7266 43.8048 57.6166 44.072 57.4204 44.2697C57.2242 44.4674 56.9579 44.5795 56.6794 44.5816H51.1933V26.1337C51.1912 25.8588 51.0811 25.5957 50.8866 25.4012C50.6922 25.2068 50.4291 25.0966 50.1541 25.0945M57.7266 17.7476C57.7266 17.6101 57.6995 17.4739 57.6469 17.3468C57.5943 17.2198 57.5172 17.1043 57.4199 17.0071M57.4199 17.0071C57.2235 16.8107 56.9571 16.7003 56.6794 16.7003M57.4199 17.0071C57.3227 16.9098 57.2072 16.8327 57.0802 16.78C56.9531 16.7274 56.8169 16.7003 56.6794 16.7003M56.6794 16.7003H13.5806C13.3028 16.7003 13.0364 16.8107 12.84 17.0071C12.6436 17.2035 12.5333 17.4698 12.5333 17.7476V25.0945H50.1541M50.1541 25.0945H7.04726C6.46887 25.0945 6 25.5634 6 26.1418V51.9527C6 52.5311 6.46887 53 7.04726 53H50.1541C50.7325 53 51.2014 52.5311 51.2014 51.9527V26.1418C51.2014 25.5634 50.7325 25.0945 50.1541 25.0945ZM17.5682 31.8937C17.5682 33.5131 16.2554 34.826 14.6359 34.826C13.0164 34.826 11.7035 33.5131 11.7035 31.8937C11.7035 30.2742 13.0164 28.9613 14.6359 28.9613C16.2554 28.9613 17.5682 30.2742 17.5682 31.8937Z" stroke="#070707" stroke-miterlimit="10" stroke-linecap="round"/>
</svg>
