<svg width="61" height="61" viewBox="0 0 61 61" fill="none" xmlns="http://www.w3.org/2000/svg">
<path d="M22.3684 42.6568H34.5155M22.3684 38.1471H34.5155M22.3684 33.6373H34.5155M22.3684 29.1276H34.5155M22.3684 24.6179H34.5155M22.3684 20.1081H34.5155M36.6503 42.6568H39.7779M36.6503 38.1471H39.7779M36.6503 33.6373H39.7779M36.6503 29.1276H39.7779M36.6503 24.6179H39.7779M36.6503 20.1081H39.7779M36.6503 15.5984H39.7779M22.3684 15.5984H34.5155M42.2048 8V48.8147M20 8V48.8147M20 49.1067L22.7772 53L25.5479 49.1067L28.3252 53L31.0959 49.1067L33.8731 53L36.6503 49.1067L39.4275 53L42.2048 49.1067M20 8.01298L22.2192 10.6085L24.4384 8.01298L26.6575 10.6085L28.8767 8.01298L31.0959 10.6085L33.3151 8.01298L35.5342 10.6085L37.7534 8.01298L39.9791 10.6085L42.2048 8.01298" stroke="#070707" stroke-miterlimit="10" stroke-linecap="round"/>
</svg>
