<svg width="113" height="60" viewBox="0 0 113 60" fill="none" xmlns="http://www.w3.org/2000/svg">
<g clip-path="url(#clip0_2070_11049)">
<path d="M100.402 15.17L100.543 15.269L111.093 22.835M111.093 22.835C110.78 22.6827 110.438 22.6006 110.089 22.5946H104.73C104.132 22.5983 103.56 22.8384 103.139 23.2623C102.717 23.6862 102.481 24.2596 102.481 24.8573V47.3573C102.481 47.8225 102.625 48.2764 102.893 48.6563C103.162 49.0363 103.541 49.3236 103.98 49.4786C104.22 49.5656 104.474 49.6087 104.73 49.6059H107.728C108.945 49.6097 110.115 49.1314 110.982 48.2756C111.848 47.4198 112.341 46.2558 112.352 45.038V24.8573C112.348 24.2582 112.109 23.6846 111.687 23.2593L111.093 22.835ZM111.857 23.3865L111.702 23.2734M1.49253 22.8633L12.9476 14.6609M100.869 49.6059V51.8686C100.869 52.0098 100.841 52.1495 100.787 52.2799C100.733 52.4103 100.654 52.5288 100.554 52.6286C100.454 52.7284 100.336 52.8076 100.205 52.8616C100.075 52.9156 99.9351 52.9434 99.7939 52.9434C99.6528 52.9434 99.513 52.9156 99.3826 52.8616C99.2522 52.8076 99.1337 52.7284 99.0339 52.6286C98.9341 52.5288 98.855 52.4103 98.8009 52.2799C98.7469 52.1495 98.7191 52.0098 98.7191 51.8686V49.6059H100.869ZM14.0224 49.6059V51.9252C14.0224 52.2103 13.9092 52.4836 13.7076 52.6852C13.506 52.8868 13.2326 53 12.9476 53C12.6625 53 12.3892 52.8868 12.1876 52.6852C11.986 52.4836 11.8728 52.2103 11.8728 51.9252V49.6059H14.0224ZM59.7295 8H97.3473C99.1125 8 100.543 9.43094 100.543 11.1961V20.6854C100.543 22.4506 99.1125 23.8815 97.3473 23.8815H59.7295C57.9643 23.8815 56.5334 22.4506 56.5334 20.6854V11.1961C56.5334 9.43094 57.9643 8 59.7295 8ZM15.875 8H53.606C55.2228 8 56.5334 9.31064 56.5334 10.9274V20.9541C56.5334 22.5709 55.2228 23.8815 53.606 23.8815H15.875C14.2582 23.8815 12.9476 22.5709 12.9476 20.9541V10.9274C12.9476 9.31064 14.2582 8 15.875 8ZM111.716 23.2593L111.122 22.835C111.341 22.9434 111.542 23.0866 111.716 23.2593ZM10.4869 24.4331V47.824C10.4872 48.2355 10.3473 48.6349 10.0902 48.9562C9.83313 49.2776 9.47423 49.5017 9.07267 49.5918C8.92733 49.6132 8.77961 49.6132 8.63427 49.5918H4.78763C3.66242 49.5918 2.58329 49.1448 1.78765 48.3491C0.992004 47.5535 0.545016 46.4744 0.545016 45.3492V24.4331C0.541768 24.1161 0.622486 23.8038 0.778971 23.5281C0.935455 23.2524 1.16213 23.023 1.43597 22.8633C1.71559 22.6876 2.03912 22.5945 2.36934 22.5946H8.59184C8.83799 22.587 9.08315 22.629 9.31278 22.718C9.5424 22.807 9.75181 22.9412 9.92856 23.1127C10.1053 23.2841 10.2458 23.4894 10.3417 23.7162C10.4376 23.943 10.487 24.1868 10.4869 24.4331ZM102.481 27.516V28.506C102.481 28.881 102.332 29.2407 102.067 29.506C101.801 29.7712 101.442 29.9202 101.067 29.9202H11.8728C11.4977 29.9202 11.138 29.7712 10.8728 29.506C10.6076 29.2407 10.4586 28.881 10.4586 28.506V27.6433C10.4598 27.4112 10.518 27.1829 10.6283 26.9786L11.8869 24.6169C12.0079 24.3958 12.1857 24.2111 12.402 24.0818C12.6184 23.9525 12.8653 23.8834 13.1173 23.8815H99.8646C100.114 23.8859 100.358 23.9562 100.572 24.0853C100.785 24.2145 100.961 24.3979 101.081 24.6169L102.311 26.8513C102.421 27.0556 102.48 27.2839 102.481 27.516ZM10.4869 29.906H102.481V39.7913H10.4869V29.906ZM103.98 49.5211V49.6059H9.08681C9.48837 49.5159 9.84728 49.2917 10.1044 48.9704C10.3614 48.649 10.5013 48.2497 10.501 47.8382V39.7772H102.481V47.3998C102.481 47.865 102.625 48.3188 102.893 48.6987C103.162 49.0787 103.541 49.366 103.98 49.5211Z" stroke="#070707" stroke-miterlimit="10"/>
</g>
<defs>
<clipPath id="clip0_2070_11049">
<rect width="112" height="60" fill="white" transform="translate(0.5)"/>
</clipPath>
</defs>
</svg>
