<svg width="81" height="60" viewBox="0 0 81 60" fill="none" xmlns="http://www.w3.org/2000/svg">
<g clip-path="url(#clip0_2070_11059)">
<path d="M61.9628 38.8753C65.9315 41.2508 68.2976 44.0412 67.7886 45.672C67.5474 46.4405 67.0258 47.0901 66.3274 47.4914C65.8759 47.7069 65.3722 47.7887 64.8757 47.7271M31.6837 20.7757C30.5421 21.5417 29.7309 22.7096 29.4118 24.0468C29.1761 25.3477 29.7135 26.0359 29.4967 27.3179C29.3312 28.049 29.0207 28.7395 28.5835 29.3483C28.1463 29.9572 27.5913 30.472 26.9514 30.8624M11.6422 34.9914H0V40.8078H11.6422M11.6422 34.9914V40.8078M11.6422 34.9914H23.2844V40.8078H11.6422M17.468 40.8078H29.1102V46.6336H17.468M17.468 40.8078V46.6336M17.468 40.8078H5.8258V46.6336H17.468M5.8258 29.1656H17.468V34.982H5.8258V29.1656ZM70.7581 47.8214C69.9096 50.1027 67.1381 51.2622 65.1868 51.4696C63.5559 51.6392 62.1985 51.0925 59.5307 50.0084C55.3074 48.3587 55.4677 47.5574 53.5352 47.3594C50.0378 46.9729 48.0016 49.4239 46.5122 48.3021C46.2388 48.1042 46.1257 47.5763 46.0974 46.8598C46.1797 44.2913 46.4952 41.7355 47.0401 39.2241C47.1119 38.6092 47.3311 38.0207 47.679 37.5086C48.0269 36.9966 48.4933 36.5761 49.0386 36.2829C52.4039 34.3975 58.6351 36.132 58.3806 33.5114C58.1732 31.428 53.5446 30.8341 53.7708 29.3824C53.9405 28.2512 57.0137 27.2142 58.6163 28.2889C60.2188 29.3636 59.7946 32.3519 60.4356 32.4179C61.3218 32.5027 62.0288 26.922 62.9903 26.9597C63.6785 26.9597 64.7249 29.9952 63.5842 32.0502C62.9055 33.3323 61.9062 33.2946 61.7837 34.1618C61.5386 35.689 64.7437 36.5657 67.4398 39.4974C68.1562 40.1762 72.059 44.3523 70.7581 47.8214ZM49.048 36.2923C48.5028 36.5855 48.0364 37.006 47.6884 37.5181C47.3405 38.0301 47.1213 38.6186 47.0495 39.2335C46.5046 41.7449 46.1891 44.3007 46.1068 46.8692C45.9158 47.0027 45.7175 47.1255 45.5129 47.2369C43.4956 48.3398 42.2701 47.6328 36.6894 47.0578C33.6256 46.7373 31.1369 46.6524 29.1479 46.5676V40.8078H23.2561V34.9914H21.5027C21.6809 34.2641 21.9238 33.5543 22.2285 32.8703C23.2561 30.5702 24.1139 30.2591 24.0385 28.7791C23.9537 26.7617 22.3228 26.4695 22.1531 24.6784C21.8043 21.4261 26.7157 18.1833 27.6019 17.5894C30.4299 15.704 32.5698 15.5155 32.6075 14.4031C32.6641 12.8477 28.554 12.2632 28.5163 10.3119C28.5777 9.71427 28.8492 9.15788 29.2825 8.74181C29.7159 8.32575 30.2828 8.07704 30.8824 8.03998C32.2493 8.14368 32.6358 10.4061 33.6068 10.3119C34.5777 10.2176 34.5495 7.21042 36.2463 6.58825C36.9782 6.41038 37.7498 6.50328 38.4186 6.84981C39.0874 7.19633 39.6083 7.77309 39.8851 8.47362C40.2433 9.87822 38.7538 11.4054 37.9997 12.1972C36.9345 13.2907 36.2557 13.4227 36.2746 13.9318C36.2746 14.8745 38.4239 14.9499 40.7241 16.3828C42.7414 17.646 42.402 18.3435 44.9096 20.6626C48.275 23.764 49.9907 23.4906 50.3772 25.2063C50.8485 27.3179 48.2655 28.0344 47.7282 31.2112C47.3134 33.436 48.2844 34.718 49.048 36.2923Z" stroke="#070707" stroke-miterlimit="10"/>
</g>
<defs>
<clipPath id="clip0_2070_11059">
<rect width="81" height="60" fill="white"/>
</clipPath>
</defs>
</svg>
