<svg width="61" height="61" viewBox="0 0 61 61" fill="none" xmlns="http://www.w3.org/2000/svg">
<path d="M48.8454 31.2536C48.5693 31.2536 48.3454 31.4775 48.3454 31.7536C48.3454 32.0297 48.5693 32.2536 48.8454 32.2536V31.2536ZM51.3595 32.2536C51.6356 32.2536 51.8595 32.0297 51.8595 31.7536C51.8595 31.4775 51.6356 31.2536 51.3595 31.2536V32.2536ZM37.5322 31.3164V30.8164V31.3164ZM39.65 31.3164V30.8164V31.3164ZM40.9549 32.6212H41.4549H40.9549ZM40.9549 33.1609V33.6609H41.4549V33.1609H40.9549ZM36.2274 33.1609H35.7274V33.6609H36.2274V33.1609ZM48.0406 41.4887C48.0406 41.2126 47.8168 40.9887 47.5406 40.9887C47.2645 40.9887 47.0406 41.2125 47.0406 41.4887L48.0406 41.4887ZM43.8742 38.2927C44.1503 38.2953 44.3763 38.0735 44.3788 37.7974C44.3814 37.5213 44.1596 37.2953 43.8834 37.2928L43.8742 38.2927ZM6.52344 20.0852V19.5852H6.02344V20.0852H6.52344ZM7.83511 20.0852V20.5852V20.0852ZM6.52344 27.1354H6.02344V27.6354H6.52344V27.1354ZM6.52344 39.1728V38.6728H6.02344V39.1728H6.52344ZM9.29025 44.8294H9.79025H9.29025ZM6.52344 46.2298H6.02344V46.7298H6.52344V46.2298ZM48.8454 32.2536H51.3595V31.2536H48.8454V32.2536ZM47.0406 31.7536C47.0406 31.8887 46.9311 31.9983 46.7959 31.9983V32.9983C47.4833 32.9983 48.0406 32.441 48.0406 31.7536H47.0406ZM46.7959 31.9983C46.6608 31.9983 46.5513 31.8887 46.5513 31.7536H45.5513C45.5513 32.441 46.1085 32.9983 46.7959 32.9983V31.9983ZM46.5513 31.7536C46.5513 31.6185 46.6608 31.509 46.7959 31.509V30.509C46.1085 30.509 45.5513 31.0662 45.5513 31.7536H46.5513ZM46.7959 31.509C46.9311 31.509 47.0406 31.6185 47.0406 31.7536H48.0406C48.0406 31.0662 47.4833 30.509 46.7959 30.509V31.509ZM37.5322 31.8164H39.65V30.8164H37.5322V31.8164ZM39.65 31.8164C39.8635 31.8164 40.0682 31.9012 40.2192 32.0521L40.9263 31.345C40.5878 31.0065 40.1287 30.8164 39.65 30.8164V31.8164ZM40.2192 32.0521C40.3701 32.2031 40.4549 32.4078 40.4549 32.6212H41.4549C41.4549 32.1425 41.2647 31.6835 40.9263 31.345L40.2192 32.0521ZM40.4549 32.6212V33.1609H41.4549V32.6212H40.4549ZM40.9549 32.6609H36.2274V33.6609H40.9549V32.6609ZM36.7274 33.1609V32.6212H35.7274V33.1609H36.7274ZM36.7274 32.6212C36.7274 32.4078 36.8122 32.2031 36.9631 32.0521L36.256 31.345C35.9175 31.6835 35.7274 32.1425 35.7274 32.6212H36.7274ZM36.9631 32.0521C37.1141 31.9012 37.3188 31.8164 37.5322 31.8164V30.8164C37.0536 30.8164 36.5945 31.0065 36.256 31.345L36.9631 32.0521ZM47.0406 41.4887C47.0406 42.122 46.8524 42.7411 46.4999 43.2673L47.3307 43.8238C47.7935 43.133 48.0406 42.3202 48.0406 41.4887L47.0406 41.4887ZM46.4999 43.2673C46.1474 43.7934 45.6465 44.203 45.0608 44.444L45.4413 45.3688C46.2103 45.0524 46.8679 44.5146 47.3307 43.8238L46.4999 43.2673ZM45.0608 44.444C44.4751 44.685 43.831 44.7466 43.2102 44.6208L43.0117 45.6009C43.8267 45.766 44.6723 45.6852 45.4413 45.3688L45.0608 44.444ZM43.2102 44.6208C42.5895 44.4951 42.0201 44.1878 41.5744 43.7379L40.864 44.4417C41.4492 45.0324 42.1968 45.4359 43.0117 45.6009L43.2102 44.6208ZM41.5744 43.7379C41.1286 43.2879 40.8266 42.7157 40.7066 42.0939L39.7247 42.2833C39.8822 43.0997 40.2787 43.851 40.864 44.4417L41.5744 43.7379ZM40.7066 42.0939C40.5866 41.472 40.6542 40.8285 40.9006 40.245L39.9794 39.8559C39.6559 40.6219 39.5672 41.4668 39.7247 42.2833L40.7066 42.0939ZM40.9006 40.245C41.147 39.6616 41.5612 39.1645 42.0907 38.8169L41.5419 37.981C40.8468 38.4374 40.3029 39.09 39.9794 39.8559L40.9006 40.245ZM42.0907 38.8169C42.6201 38.4693 43.2409 38.2869 43.8742 38.2927L43.8834 37.2928C43.052 37.2851 42.2369 37.5246 41.5419 37.981L42.0907 38.8169ZM48.7895 41.4887C48.7895 44.28 46.5267 46.5428 43.7354 46.5428V47.5428C47.079 47.5428 49.7895 44.8323 49.7895 41.4887H48.7895ZM43.7354 46.5428C40.9441 46.5428 38.6812 44.28 38.6812 41.4887H37.6812C37.6812 44.8323 40.3918 47.5428 43.7354 47.5428V46.5428ZM38.6812 41.4887C38.6812 38.6974 40.9441 36.4346 43.7354 36.4346V35.4346C40.3918 35.4346 37.6812 38.1451 37.6812 41.4887H38.6812ZM43.7354 36.4346C46.5267 36.4346 48.7895 38.6974 48.7895 41.4887H49.7895C49.7895 38.1451 47.079 35.4346 43.7354 35.4346V36.4346ZM33.686 30.4842H53.7847V29.4842H33.686V30.4842ZM53.7847 30.4842C54.3122 30.4842 54.7398 30.9118 54.7398 31.4393H55.7398C55.7398 30.3596 54.8645 29.4842 53.7847 29.4842V30.4842ZM54.7398 31.4393V51.538H55.7398V31.4393H54.7398ZM54.7398 51.538C54.7398 52.0655 54.3122 52.4932 53.7847 52.4932V53.4932C54.8645 53.4932 55.7398 52.6178 55.7398 51.538H54.7398ZM53.7847 52.4932H33.686V53.4932H53.7847V52.4932ZM33.686 52.4932C33.1585 52.4932 32.7309 52.0655 32.7309 51.538H31.7309C31.7309 52.6178 32.6062 53.4932 33.686 53.4932V52.4932ZM32.7309 51.538V31.4393H31.7309V51.538H32.7309ZM32.7309 31.4393C32.7309 30.9118 33.1585 30.4842 33.686 30.4842V29.4842C32.6062 29.4842 31.7309 30.3596 31.7309 31.4393H32.7309ZM13.3141 12.5238H20.7401V11.5238H13.3141V12.5238ZM20.7401 12.5238C20.8261 12.5238 20.8959 12.5936 20.8959 12.6797H21.8959C21.8959 12.0413 21.3784 11.5238 20.7401 11.5238V12.5238ZM20.8959 12.6797V13.2262H21.8959V12.6797H20.8959ZM20.8959 13.2262C20.8959 13.3123 20.8261 13.382 20.7401 13.382V14.382C21.3784 14.382 21.8959 13.8646 21.8959 13.2262H20.8959ZM20.7401 13.382H13.3141V14.382H20.7401V13.382ZM13.3141 13.382C13.228 13.382 13.1582 13.3123 13.1582 13.2262H12.1582C12.1582 13.8646 12.6757 14.382 13.3141 14.382V13.382ZM13.1582 13.2262V12.6797H12.1582V13.2262H13.1582ZM13.1582 12.6797C13.1582 12.5936 13.228 12.5238 13.3141 12.5238V11.5238C12.6757 11.5238 12.1582 12.0413 12.1582 12.6797H13.1582ZM32.2309 33.6609H55.2398V32.6609H32.2309V33.6609ZM6.52344 33.6609H27.5307V32.6609H6.52344V33.6609ZM6.52344 20.5852H7.83511V19.5852H6.52344V20.5852ZM7.83511 20.5852C8.09387 20.5852 8.34202 20.688 8.52499 20.8709L9.2321 20.1638C8.86159 19.7933 8.35908 19.5852 7.83511 19.5852V20.5852ZM8.52499 20.8709C8.70796 21.0539 8.81075 21.302 8.81075 21.5608H9.81075C9.81075 21.0368 9.6026 20.5343 9.2321 20.1638L8.52499 20.8709ZM8.81075 21.5608V25.6598H9.81075V21.5608H8.81075ZM8.81075 25.6598C8.81075 25.9185 8.70796 26.1667 8.52499 26.3497L9.2321 27.0568C9.6026 26.6863 9.81075 26.1838 9.81075 25.6598H8.81075ZM8.52499 26.3497C8.34202 26.5326 8.09387 26.6354 7.83511 26.6354V27.6354C8.35908 27.6354 8.86159 27.4273 9.2321 27.0568L8.52499 26.3497ZM7.83511 26.6354H6.52344V27.6354H7.83511V26.6354ZM7.02344 27.1354V20.0852H6.02344V27.1354H7.02344ZM6.52344 39.6728H7.88977V38.6728H6.52344V39.6728ZM7.88977 39.6728C8.12859 39.6728 8.35763 39.7676 8.52651 39.9365L9.23361 39.2294C8.8772 38.873 8.39381 38.6728 7.88977 38.6728V39.6728ZM8.52651 39.9365C8.69538 40.1054 8.79025 40.3344 8.79025 40.5732H9.79025C9.79025 40.0692 9.59002 39.5858 9.23361 39.2294L8.52651 39.9365ZM8.79025 40.5732V44.8294H9.79025V40.5732H8.79025ZM8.79025 44.8294C8.79025 45.0682 8.69538 45.2972 8.52651 45.4661L9.23361 46.1732C9.59002 45.8168 9.79025 45.3334 9.79025 44.8294H8.79025ZM8.52651 45.4661C8.35763 45.635 8.12859 45.7298 7.88977 45.7298V46.7298C8.3938 46.7298 8.8772 46.5296 9.23361 46.1732L8.52651 45.4661ZM7.88977 45.7298H6.52344V46.7298H7.88977V45.7298ZM7.02344 46.2298V39.1728H6.02344V46.2298H7.02344ZM8.38847 8.5H25.6725V7.5H8.38847V8.5ZM25.6725 8.5C26.4264 8.5 27.0376 9.11115 27.0376 9.86504H28.0376C28.0376 8.55886 26.9787 7.5 25.6725 7.5V8.5ZM27.0376 9.86504V51.135H28.0376V9.86504H27.0376ZM27.0376 51.135C27.0376 51.8888 26.4264 52.5 25.6725 52.5V53.5C26.9787 53.5 28.0376 52.4411 28.0376 51.135H27.0376ZM25.6725 52.5H8.38847V53.5H25.6725V52.5ZM8.38847 52.5C7.63459 52.5 7.02344 51.8888 7.02344 51.135H6.02344C6.02344 52.4411 7.0823 53.5 8.38847 53.5V52.5ZM7.02344 51.135V9.86504H6.02344V51.135H7.02344ZM7.02344 9.86504C7.02344 9.11115 7.63459 8.5 8.38847 8.5V7.5C7.0823 7.5 6.02344 8.55886 6.02344 9.86504H7.02344Z" fill="#070707"/>
</svg>
