<svg width="79" height="61" viewBox="0 0 79 61" fill="none" xmlns="http://www.w3.org/2000/svg">
<g clip-path="url(#clip0_2067_10192)">
<path d="M53.7024 50.3447H78.3666M27.2982 50.3447H51.9519M0.883492 50.3447H25.5477M41.3441 35.3449H66.0083M14.9399 35.3449H39.5936M28.1053 20.3451H52.7695M78.3456 53.4998H53.671C53.5358 53.5003 53.4025 53.4685 53.2821 53.407C53.1617 53.3456 53.0577 53.2564 52.9788 53.1467C52.8999 53.037 52.8483 52.91 52.8283 52.7764C52.8083 52.6427 52.8205 52.5062 52.8638 52.3782L57.3711 39.108C57.4278 38.9383 57.5361 38.7905 57.6807 38.6853C57.8254 38.5801 57.9993 38.5226 58.1782 38.521H73.2094C73.3819 38.5202 73.5504 38.5719 73.6927 38.6693C73.8351 38.7666 73.9443 38.905 74.0061 39.066L79.1318 52.3677C79.1792 52.4946 79.1952 52.6311 79.1783 52.7655C79.1615 52.8999 79.1123 53.0283 79.035 53.1395C78.9578 53.2508 78.8547 53.3417 78.7346 53.4044C78.6146 53.4672 78.4811 53.4999 78.3456 53.4998ZM51.9309 53.4998H27.2563C27.1211 53.5003 26.9878 53.4685 26.8674 53.407C26.747 53.3456 26.643 53.2564 26.5641 53.1467C26.4852 53.037 26.4336 52.91 26.4136 52.7764C26.3936 52.6427 26.4058 52.5062 26.4491 52.3782L30.9564 39.108C31.0157 38.9399 31.1247 38.7939 31.2688 38.6891C31.4129 38.5843 31.5854 38.5256 31.7635 38.521H46.7947C46.9672 38.5202 47.1357 38.5719 47.2781 38.6693C47.4204 38.7666 47.5296 38.905 47.5914 39.066L52.7276 52.3677C52.7727 52.4955 52.7867 52.6322 52.7682 52.7664C52.7498 52.9007 52.6994 53.0285 52.6214 53.1394C52.5435 53.2502 52.4401 53.3407 52.32 53.4034C52.1998 53.4661 52.0664 53.4992 51.9309 53.4998ZM25.5162 53.4998H0.852046C0.7169 53.5003 0.583592 53.4685 0.463206 53.407C0.34282 53.3456 0.238834 53.2564 0.159894 53.1467C0.0809538 53.037 0.0293402 52.91 0.00934463 52.7764C-0.0106509 52.6427 0.00154852 52.5062 0.0449299 52.3782L4.5522 39.108C4.60891 38.9383 4.71716 38.7905 4.86184 38.6853C5.00652 38.5801 5.18043 38.5226 5.35932 38.521H20.3905C20.563 38.5202 20.7315 38.5719 20.8738 38.6693C21.0161 38.7666 21.1254 38.905 21.1872 39.066L26.3129 52.3467C26.365 52.4756 26.3843 52.6153 26.3691 52.7535C26.3538 52.8916 26.3045 53.0238 26.2255 53.1381C26.1465 53.2524 26.0403 53.3454 25.9165 53.4085C25.7927 53.4716 25.6552 53.503 25.5162 53.4998ZM65.9768 38.5H41.3126C41.1775 38.5005 41.0442 38.4687 40.9238 38.4073C40.8034 38.3459 40.6994 38.2566 40.6205 38.1469C40.5416 38.0372 40.4899 37.9102 40.4699 37.7766C40.45 37.6429 40.4622 37.5064 40.5055 37.3784L45.0128 24.0872C45.0695 23.9176 45.1778 23.7698 45.3224 23.6646C45.4671 23.5594 45.641 23.5019 45.8199 23.5002H60.9035C61.0753 23.5023 61.2426 23.5552 61.3844 23.6522C61.5262 23.7492 61.636 23.8859 61.7002 24.0453L66.7735 37.347C66.8229 37.4759 66.8402 37.6149 66.8237 37.7519C66.8073 37.889 66.7577 38.02 66.6793 38.1336C66.6008 38.2472 66.4958 38.3399 66.3734 38.4037C66.251 38.4676 66.1149 38.5006 65.9768 38.5ZM39.5726 38.5H14.898C14.7628 38.5005 14.6295 38.4687 14.5091 38.4073C14.3887 38.3459 14.2847 38.2566 14.2058 38.1469C14.1269 38.0372 14.0752 37.9102 14.0553 37.7766C14.0353 37.6429 14.0475 37.5064 14.0908 37.3784L18.5981 24.0872C18.6548 23.9176 18.7631 23.7698 18.9077 23.6646C19.0524 23.5594 19.2263 23.5019 19.4052 23.5002H34.4364C34.6089 23.4994 34.7774 23.5512 34.9198 23.6485C35.0621 23.7459 35.1713 23.8843 35.2331 24.0453L40.3693 37.347C40.4187 37.4759 40.4359 37.6149 40.4195 37.7519C40.4031 37.889 40.3535 38.02 40.275 38.1336C40.1966 38.2472 40.0916 38.3399 39.9692 38.4037C39.8468 38.4676 39.7107 38.5006 39.5726 38.5ZM52.7485 23.5002H28.0739C27.9336 23.5033 27.7948 23.4716 27.6699 23.4079C27.5449 23.3442 27.4376 23.2506 27.3577 23.1353C27.2778 23.0201 27.2276 22.8868 27.2117 22.7475C27.1959 22.6081 27.2148 22.467 27.2667 22.3367L31.774 9.04552C31.8389 8.88028 31.9533 8.73917 32.1015 8.64157C32.2498 8.54398 32.4247 8.49468 32.6021 8.50046H47.6123C47.7848 8.49967 47.9533 8.5514 48.0956 8.64877C48.238 8.74614 48.3472 8.88452 48.409 9.04552L53.5661 22.3367C53.6214 22.4677 53.6425 22.6106 53.6274 22.752C53.6123 22.8934 53.5615 23.0287 53.4797 23.145C53.3979 23.2614 53.2879 23.355 53.16 23.4171C53.0321 23.4793 52.8905 23.5079 52.7485 23.5002Z" stroke="#070707" stroke-miterlimit="10" stroke-linecap="round"/>
</g>
<defs>
<clipPath id="clip0_2067_10192">
<rect width="79" height="60" fill="white" transform="translate(0 0.5)"/>
</clipPath>
</defs>
</svg>
