<svg width="61" height="60" viewBox="0 0 61 60" fill="none" xmlns="http://www.w3.org/2000/svg">
<path d="M12 40.4463C13.3658 39.5517 15.1193 38.7227 16.3121 39.3429C17.0517 39.7306 16.9085 40.3151 17.6481 40.6968C19.0915 41.4185 20.5467 39.7604 22.9264 40.0348C23.6953 40.1313 24.4329 40.3983 25.0855 40.8161M38.3917 18.0865L36.8588 22.8101M36.7873 25.172L38.4632 29.8419M35.8509 32.83L39.4056 36.2952M37.6282 39.1402V44.1024M39.9781 47.8897L35.2724 49.4642M44.6839 17.9672V22.9294M45.9781 25.339L43.3837 29.5616M47.0577 33.8499L42.3042 35.2754M42.2028 41.6213H47.165M46.6402 50.2038L42.7276 47.1501M25.1869 32.8479V46.9712C25.1869 47.5829 25.0664 48.1886 24.8323 48.7537C24.5982 49.3189 24.2551 49.8324 23.8226 50.2649C23.39 50.6975 22.8765 51.0406 22.3114 51.2747C21.7462 51.5087 21.1405 51.6292 20.5288 51.6292H16.6581C16.0463 51.6292 15.4406 51.5087 14.8755 51.2747C14.3104 51.0406 13.7969 50.6975 13.3643 50.2649C12.9318 49.8324 12.5887 49.3189 12.3546 48.7537C12.1205 48.1886 12 47.5829 12 46.9712V32.8479C12 31.6125 12.4908 30.4277 13.3643 29.5542C14.2379 28.6806 15.4227 28.1899 16.6581 28.1899H15.34L17.0159 12.4682L16.9801 12.8499C16.9801 12.6352 17.1113 12.0328 17.1113 11.8062C17.1113 9.42048 17.8509 7.5 18.7694 7.5C19.6879 7.5 20.4274 9.43241 20.4274 11.8181C20.4306 12.2628 20.4027 12.7073 20.3439 13.1481L21.9066 28.2018H20.5288C21.7622 28.2018 22.9451 28.6909 23.8184 29.5619C24.6916 30.4329 25.1837 31.6146 25.1869 32.8479ZM22.0497 45.1044C22.0497 45.4008 21.8094 45.6412 21.5129 45.6412C21.2165 45.6412 20.9761 45.4008 20.9761 45.1044C20.9761 44.8079 21.2165 44.5676 21.5129 44.5676C21.8094 44.5676 22.0497 44.8079 22.0497 45.1044ZM17.9761 49.005C17.9761 49.4233 17.637 49.7624 17.2187 49.7624C16.8004 49.7624 16.4612 49.4233 16.4612 49.005C16.4612 48.5866 16.8004 48.2475 17.2187 48.2475C17.637 48.2475 17.9761 48.5866 17.9761 49.005ZM16.2883 42.7068C16.2883 42.9604 16.0827 43.166 15.829 43.166C15.5754 43.166 15.3698 42.9604 15.3698 42.7068C15.3698 42.4531 15.5754 42.2475 15.829 42.2475C16.0827 42.2475 16.2883 42.4531 16.2883 42.7068ZM33.8708 16.5537H48.6501C49.4406 16.5537 50.0815 17.1945 50.0815 17.9851V51.0686C50.0815 51.8591 49.4406 52.5 48.6501 52.5H33.8708C33.0802 52.5 32.4394 51.8591 32.4394 51.0686V17.9851C32.4394 17.1945 33.0802 16.5537 33.8708 16.5537ZM40.0557 20.4483C40.0557 21.7889 38.9689 22.8757 37.6282 22.8757C36.2876 22.8757 35.2008 21.7889 35.2008 20.4483C35.2008 19.1077 36.2876 18.0209 37.6282 18.0209C38.9689 18.0209 40.0557 19.1077 40.0557 20.4483ZM40.0557 27.504C40.0557 28.8446 38.9689 29.9314 37.6282 29.9314C36.2876 29.9314 35.2008 28.8446 35.2008 27.504C35.2008 26.1633 36.2876 25.0765 37.6282 25.0765C38.9689 25.0765 40.0557 26.1633 40.0557 27.504ZM40.0557 34.5596C40.0557 35.9003 38.9689 36.9871 37.6282 36.9871C36.2876 36.9871 35.2008 35.9003 35.2008 34.5596C35.2008 33.219 36.2876 32.1322 37.6282 32.1322C38.9689 32.1322 40.0557 33.219 40.0557 34.5596ZM40.0557 41.6213C40.0557 42.9619 38.9689 44.0487 37.6282 44.0487C36.2876 44.0487 35.2008 42.9619 35.2008 41.6213C35.2008 40.2806 36.2876 39.1938 37.6282 39.1938C38.9689 39.1938 40.0557 40.2806 40.0557 41.6213ZM40.0557 48.6769C40.0557 50.0176 38.9689 51.1044 37.6282 51.1044C36.2876 51.1044 35.2008 50.0176 35.2008 48.6769C35.2008 47.3363 36.2876 46.2495 37.6282 46.2495C38.9689 46.2495 40.0557 47.3363 40.0557 48.6769ZM47.1113 20.4483C47.1113 21.7889 46.0245 22.8757 44.6839 22.8757C43.3433 22.8757 42.2565 21.7889 42.2565 20.4483C42.2565 19.1077 43.3433 18.0209 44.6839 18.0209C46.0245 18.0209 47.1113 19.1077 47.1113 20.4483ZM47.1113 27.4503C47.1113 28.7909 46.0245 29.8777 44.6839 29.8777C43.3433 29.8777 42.2565 28.7909 42.2565 27.4503C42.2565 26.1097 43.3433 25.0229 44.6839 25.0229C46.0245 25.0229 47.1113 26.1097 47.1113 27.4503ZM47.1113 34.5596C47.1113 35.9003 46.0245 36.9871 44.6839 36.9871C43.3433 36.9871 42.2565 35.9003 42.2565 34.5596C42.2565 33.219 43.3433 32.1322 44.6839 32.1322C46.0245 32.1322 47.1113 33.219 47.1113 34.5596ZM47.1113 41.6213C47.1113 42.9619 46.0245 44.0487 44.6839 44.0487C43.3433 44.0487 42.2565 42.9619 42.2565 41.6213C42.2565 40.2806 43.3433 39.1938 44.6839 39.1938C46.0245 39.1938 47.1113 40.2806 47.1113 41.6213ZM47.1113 48.6769C47.1113 50.0176 46.0245 51.1044 44.6839 51.1044C43.3433 51.1044 42.2565 50.0176 42.2565 48.6769C42.2565 47.3363 43.3433 46.2495 44.6839 46.2495C46.0245 46.2495 47.1113 47.3363 47.1113 48.6769Z" stroke="#070707" stroke-miterlimit="10"/>
</svg>
