<svg width="61" height="61" viewBox="0 0 61 61" fill="none" xmlns="http://www.w3.org/2000/svg">
<path d="M14.3481 35.6631H12.0201M12.0201 35.6631L15.2035 41.1746L18.1576 39.4727L16.782 37.1005M12.0201 35.6631H7.52272M12.0201 35.6631L10.9442 33.8201M16.782 37.1005L16.2441 36.1305C16.1604 35.9875 16.0406 35.8689 15.8967 35.7869C15.7527 35.7049 15.5897 35.6622 15.424 35.6631H7.77846M16.782 37.1005L18.1665 39.4903L19.9301 42.5944C20.0469 42.8056 20.079 43.0534 20.0201 43.2875C19.9612 43.5216 19.8156 43.7246 19.6127 43.8554L14.9037 46.5714L14.1012 47.0388L9.16294 49.8959L3.12237 39.4374C3.00036 39.2218 2.96804 38.9668 3.03239 38.7276C3.09673 38.4884 3.25258 38.284 3.46629 38.1587L7.59327 35.7778M24.6303 35.7337L25.6621 35.1429C25.767 35.0787 25.8583 34.9945 25.9306 34.895C26.0029 34.7956 26.0549 34.6828 26.0836 34.5632C26.1123 34.4436 26.1171 34.3195 26.0977 34.198C26.0783 34.0766 26.0352 33.9601 25.9707 33.8554M24.6303 35.7337L24.2511 33.5732C24.2256 33.4098 24.2431 33.2425 24.3018 33.0879C24.3606 32.9332 24.4586 32.7966 24.5862 32.6914L25.0889 32.2769L25.9707 33.8554M24.6303 35.7337L23.9954 36.1041C24.0921 36.2535 24.1413 36.4288 24.1365 36.6067M24.6303 35.7337L26.4998 46.4656M25.9707 33.8554C26.034 33.9617 26.0756 34.0796 26.093 34.2021C26.1105 34.3246 26.1034 34.4494 26.0722 34.5691C26.041 34.6889 25.9864 34.8013 25.9114 34.8998C25.8365 34.9983 25.7427 35.0809 25.6356 35.1429L24.6039 35.7337L26.4733 46.4656H27.7961L26.8084 48.2116L26.4998 46.448H25.08C24.9566 46.4491 24.8341 46.4258 24.7196 46.3794C24.6052 46.3329 24.5011 46.2642 24.4134 46.1773C24.3256 46.0904 24.256 45.987 24.2085 45.873C24.1609 45.759 24.1365 45.6367 24.1365 45.5132V36.6067M7.59327 35.7778L7.77846 35.6631M7.59327 35.7778L7.52272 35.6631M7.77846 35.6631H7.52272M26.0853 21.0864L25.9883 20.963M20.8032 52.1887H25.4328C25.598 52.1888 25.7604 52.1455 25.9036 52.0631C26.0468 51.9807 26.1659 51.8622 26.249 51.7193C26.332 51.5765 26.3761 51.4143 26.3768 51.2491C26.3774 51.0838 26.3347 50.9213 26.2529 50.7778L26.0589 50.4515C25.9768 50.3094 25.9337 50.1482 25.9337 49.9841C25.9337 49.82 25.9768 49.6589 26.0589 49.5168L26.8084 48.2205M45.8825 26.1746C46.006 26.1746 46.1283 26.1991 46.2423 26.2466C46.3563 26.2941 46.4597 26.3638 46.5466 26.4515C46.6335 26.5392 46.7022 26.6433 46.7487 26.7577C46.7951 26.8722 46.8184 26.9947 46.8173 27.1182V29.4903C46.8184 29.6134 46.7951 29.7355 46.7485 29.8494C46.702 29.9633 46.6331 30.0669 46.5461 30.1539C46.4591 30.2409 46.3556 30.3097 46.2416 30.3563C46.1277 30.4028 46.0056 30.4262 45.8825 30.425H37.6285C37.4584 30.4288 37.2923 30.4772 37.1468 30.5654C37.0013 30.6536 36.8816 30.7786 36.7996 30.9277L28.8631 44.6843M37.0201 22.4709L27.6991 27.8589H27.752L37.0201 22.4709ZM37.0201 22.4709L37.4169 22.2416M37.0201 22.4709L37.6815 20.9806M37.4169 22.2416C37.6022 22.1128 37.7345 21.9213 37.7896 21.7025C37.8448 21.4837 37.8189 21.2523 37.7167 21.0511C37.7183 21.0335 37.7183 21.0158 37.7167 20.9982V20.9365L37.0465 19.7637C37.0013 19.8794 36.9797 20.0029 36.9828 20.1271C36.9859 20.2512 37.0137 20.3736 37.0646 20.4869C37.1155 20.6002 37.1884 20.7022 37.2792 20.7869C37.37 20.8717 37.4768 20.9376 37.5933 20.9806H37.6815M37.4169 22.2416C37.6051 22.1064 37.7363 21.9062 37.7852 21.6797C37.8341 21.4532 37.7971 21.2166 37.6815 21.0159C37.6831 20.9983 37.6831 20.9806 37.6815 20.963V20.9012V20.9806M7.52272 35.6631L6.52625 33.8995C6.44421 33.7574 6.40102 33.5962 6.40102 33.4321C6.40102 33.268 6.44421 33.1068 6.52625 32.9647L7.849 30.672C7.91756 30.791 8.01128 30.8937 8.12363 30.9728C8.23598 31.0518 8.36424 31.1054 8.49945 31.1298C8.63466 31.1541 8.77356 31.1487 8.90644 31.1138C9.03932 31.0789 9.16297 31.0153 9.26876 30.9277L10.9442 33.8201M10.9442 33.8201L10.8031 33.9083M26.4998 46.4656H25.08C24.9566 46.4668 24.8341 46.4435 24.7196 46.397C24.6052 46.3505 24.5011 46.2819 24.4134 46.195C24.3256 46.108 24.256 46.0046 24.2085 45.8906C24.1609 45.7766 24.1365 45.6544 24.1365 45.5309V36.6067M26.4998 46.4656L26.8084 48.2293L27.8225 46.4656H26.4998ZM27.9813 44.5697V44.5168M20.9266 17.8236C20.8073 17.6089 20.7765 17.356 20.8408 17.1189C20.905 16.8818 21.0592 16.679 21.2705 16.5538L22.8137 15.672L25.6268 14.0494C25.7671 13.9624 25.9291 13.9166 26.0942 13.9171H28.9866L29.9654 11.2716C30.0458 11.0422 30.0337 10.7905 29.9316 10.5699C29.8295 10.3493 29.6456 10.1772 29.4187 10.0899L23.8278 8L6.42043 22.3122L7.30227 27.6032L7.752 30.3545C7.77409 30.4655 7.81273 30.5725 7.86664 30.672C7.93519 30.791 8.02892 30.8937 8.14127 30.9728C8.25361 31.0518 8.38187 31.1054 8.51709 31.1298C8.6523 31.1541 8.7912 31.1487 8.92407 31.1138C9.05695 31.0789 9.18061 31.0153 9.28639 30.9277L11.394 29.164L13.3428 27.5238C13.5291 27.3631 13.646 27.1366 13.669 26.8917C13.692 26.6468 13.6194 26.4024 13.4663 26.2099C13.387 26.1152 13.3272 26.0057 13.2904 25.8878C13.2537 25.7698 13.2407 25.6458 13.2521 25.5228C13.2636 25.3997 13.2994 25.2802 13.3573 25.1711C13.4153 25.062 13.4943 24.9655 13.5897 24.8871L21.3322 18.5203L20.9266 17.8236ZM20.9266 17.8236L21.297 18.485L22.1788 17.7884C22.273 17.7079 22.3824 17.6471 22.5005 17.6097C22.6185 17.5723 22.7429 17.5589 22.8663 17.5704C22.9896 17.582 23.1094 17.6181 23.2185 17.6767C23.3276 17.7354 23.4239 17.8153 23.5016 17.9118L25.9883 20.9277L26.0942 21.06L29.1718 24.7989C29.3317 24.9916 29.5612 25.1136 29.8104 25.1383C30.0596 25.1631 30.3086 25.0887 30.5033 24.9312L34.8243 21.4039C34.9499 21.3026 35.0471 21.1705 35.1064 21.0205C35.1658 20.8705 35.1853 20.7077 35.1632 20.5479C35.141 20.3881 35.0778 20.2367 34.9798 20.1086C34.8818 19.9804 34.7523 19.8798 34.6039 19.8166L32.4434 19.0053L30.6268 18.3175L28.6603 17.5855C28.427 17.4983 28.2376 17.3223 28.1335 17.096C28.0295 16.8696 28.0191 16.6114 28.1047 16.3774L28.9866 13.9083H26.0942C25.9291 13.9078 25.7671 13.9536 25.6268 14.0406L22.8137 15.6631L21.2705 16.545C21.0568 16.6703 20.901 16.8746 20.8366 17.1138C20.7723 17.3531 20.8046 17.608 20.9266 17.8236ZM41.2088 18.4497L40.2388 20.9277C40.1515 21.161 39.9755 21.3504 39.7492 21.4544C39.5229 21.5585 39.2646 21.5689 39.0307 21.4832L37.7873 21.0159C37.7889 20.9983 37.7889 20.9806 37.7873 20.963V20.9012L37.1171 19.7284L34.5598 15.3192C34.4819 15.1755 34.4426 15.0141 34.4459 14.8507C34.4491 14.6873 34.4948 14.5275 34.5783 14.3871C34.6619 14.2466 34.7805 14.1302 34.9226 14.0494C35.0646 13.9686 35.2253 13.926 35.3887 13.9259H39.6568C39.8218 13.9274 39.9836 13.9721 40.126 14.0557C40.2683 14.1393 40.3863 14.2587 40.4681 14.4021L40.6268 14.6667L39.304 17.5944L39.1541 17.9295L39.7626 17.4268C39.9217 17.3172 40.1105 17.2591 40.3037 17.2603C40.4969 17.2615 40.685 17.322 40.8427 17.4335C41.0004 17.5451 41.1201 17.7023 41.1855 17.8841C41.251 18.0658 41.2591 18.2632 41.2088 18.4497ZM41.2088 18.4497C41.3287 18.2449 41.367 18.0025 41.3161 17.7707C41.2652 17.5389 41.1288 17.3348 40.9341 17.1991C40.7394 17.0633 40.5007 17.006 40.2656 17.0384C40.0305 17.0708 39.8163 17.1906 39.6656 17.3739L39.0571 17.8765L39.207 17.5503L40.5121 14.6314L41.6938 12.0388C41.7366 11.9028 41.8217 11.7839 41.9366 11.6995C42.0516 11.6151 42.1905 11.5696 42.3331 11.5696C42.4758 11.5696 42.6147 11.6151 42.7296 11.6995C42.8446 11.7839 42.9297 11.9028 42.9725 12.0388L58.0783 44.4021H54.2423C54.3737 44.3576 54.4934 44.2841 54.5925 44.1871C54.6917 44.0901 54.7678 43.972 54.8152 43.8416C54.8626 43.7113 54.8801 43.5719 54.8664 43.4339C54.8527 43.2958 54.8082 43.1626 54.7361 43.0441L50.327 35.3369L49.7009 34.261C49.6396 34.1543 49.5579 34.0608 49.4605 33.9857C49.363 33.9107 49.2517 33.8556 49.1329 33.8236C49.0141 33.7917 48.8902 33.7835 48.7682 33.7995C48.6463 33.8156 48.5287 33.8555 48.4222 33.9171L45.7326 35.478L45.6709 35.3369L45.1771 34.3139C45.1438 34.2137 45.0877 34.1227 45.0131 34.048C44.9385 33.9733 44.8475 33.917 44.7473 33.8836C44.6472 33.8502 44.5406 33.8406 44.4361 33.8556C44.3316 33.8706 44.232 33.9098 44.1453 33.97L36.4822 39.5432C36.303 39.699 36.1794 39.9089 36.1301 40.1412C36.0808 40.3735 36.1084 40.6155 36.2088 40.8307L37.3023 43.2028C37.5933 43.8289 37.2405 44.6138 36.6585 44.6138H35.1859L28.8719 44.6843M41.2088 18.4497L40.2741 20.9189C40.2383 21.0386 40.1776 21.1494 40.0958 21.2439C40.014 21.3385 39.9131 21.4145 39.7996 21.467C39.6862 21.5196 39.563 21.5474 39.438 21.5487C39.313 21.5499 39.1892 21.5246 39.0748 21.4744L37.8314 21.0159C37.9339 21.2291 37.9517 21.4732 37.8814 21.699C37.811 21.9248 37.6576 22.1156 37.4522 22.2328L37.0554 22.4797L27.7255 27.8589M16.782 37.0476L18.1576 39.455L19.9213 42.5503C20.0461 42.7667 20.08 43.0237 20.0155 43.2651C19.951 43.5065 19.7935 43.7124 19.5774 43.8377L14.8684 46.5538C14.6544 46.6789 14.4989 46.8839 14.4361 47.1237C14.3732 47.3635 14.4082 47.6184 14.5333 47.8324L17.5051 53H40.133L42.7785 48.3351L41.3852 45.9453C41.3019 45.8028 41.2574 45.641 41.2562 45.476C41.255 45.3109 41.2971 45.1485 41.3783 45.0048C41.4595 44.8611 41.577 44.7412 41.719 44.6571C41.861 44.573 42.0226 44.5277 42.1876 44.5256H41.103M55.7502 44.7284L44.4804 51.2099L42.8226 48.3263L41.4293 45.9189C41.3484 45.7773 41.3057 45.6171 41.3052 45.4541C41.3047 45.2911 41.3464 45.1307 41.4263 44.9886C41.5063 44.8464 41.6217 44.7275 41.7613 44.6432C41.9009 44.559 42.0599 44.5124 42.2229 44.5079H45.036L53.9689 44.4374H55.5827L55.7502 44.7284ZM32.3905 18.9965L30.6268 18.3086L30.8737 18.1675C30.9802 18.1034 31.0986 18.0613 31.2218 18.0439C31.3449 18.0264 31.4703 18.034 31.5905 18.0661C31.7106 18.0982 31.8231 18.1542 31.9212 18.2307C32.0192 18.3072 32.1008 18.4027 32.1612 18.5115L32.3905 18.9965ZM25.9972 33.8554L25.1153 32.2769L24.6127 32.6914C24.485 32.7966 24.387 32.9332 24.3283 33.0879C24.2695 33.2425 24.252 33.4098 24.2776 33.5732L24.6568 35.7249L25.6885 35.134C25.898 35.0046 26.048 34.7976 26.1058 34.5582C26.1636 34.3188 26.1246 34.0662 25.9972 33.8554ZM37.7608 20.963V20.9012L37.0906 19.7284C37.0454 19.8441 37.0238 19.9676 37.0268 20.0918C37.0299 20.216 37.0578 20.3383 37.1087 20.4516C37.1596 20.5649 37.2325 20.6669 37.3233 20.7517C37.4141 20.8364 37.5209 20.9023 37.6374 20.9453L37.8226 21.0159C37.8046 20.9954 37.7838 20.9776 37.7608 20.963ZM43.3957 44.5344H42.2229C42.0599 44.5389 41.9009 44.5855 41.7613 44.6697C41.6217 44.7539 41.5063 44.8729 41.4263 45.015C41.3464 45.1571 41.3047 45.3175 41.3052 45.4806C41.3057 45.6436 41.3484 45.8037 41.4293 45.9453L42.8226 48.3439L44.207 45.9189C44.2848 45.7771 44.3245 45.6176 44.3223 45.456C44.32 45.2943 44.2758 45.136 44.1941 44.9965C44.1123 44.857 43.9958 44.7411 43.8559 44.6601C43.716 44.5791 43.5574 44.5358 43.3957 44.5344ZM27.752 27.8236H27.6991L37.0201 22.4356L27.752 27.8236ZM27.2846 28.097L27.655 27.8854C27.5408 27.9743 27.4482 28.088 27.3841 28.2178C27.3199 28.3476 27.2859 28.4902 27.2846 28.6349V28.097ZM54.2776 44.4021C54.1815 44.437 54.08 44.4549 53.9778 44.455L45.0448 44.5256H41.1118C40.9565 44.5169 40.8058 44.4697 40.6733 44.388C40.5409 44.3064 40.431 44.1931 40.3534 44.0582L38.4398 40.7513C38.3783 40.6448 38.3383 40.5272 38.3223 40.4053C38.3062 40.2833 38.3144 40.1594 38.3464 40.0406C38.3783 39.9218 38.4334 39.8105 38.5084 39.713C38.5835 39.6156 38.6771 39.5339 38.7838 39.4727L45.7326 35.4603L48.4222 33.8995C48.6391 33.777 48.8954 33.7445 49.1361 33.8087C49.3768 33.873 49.5827 34.0291 49.7097 34.2434L54.7361 43.0088C54.814 43.1266 54.8641 43.2604 54.8829 43.4003C54.9016 43.5401 54.8884 43.6825 54.8443 43.8165C54.8001 43.9506 54.7262 44.0729 54.6281 44.1743C54.53 44.2757 54.4101 44.3536 54.2776 44.4021Z" stroke="#070707" stroke-miterlimit="10" stroke-linecap="round"/>
</svg>
