<svg width="61" height="60" viewBox="0 0 61 60" fill="none" xmlns="http://www.w3.org/2000/svg">
<path d="M43.046 35.5067L44.0794 35.4999L44.757 27.2118H16.2996L17.5247 35.6846H18.2775M43.046 35.5067L18.2775 35.6846M43.046 35.5067L41.2529 52.1582C41.2276 52.3893 41.118 52.603 40.945 52.7583C40.7719 52.9136 40.5477 52.9997 40.3152 53H21.1862C20.9582 52.9968 20.739 52.9112 20.5692 52.7589C20.3994 52.6067 20.2903 52.3982 20.2623 52.1719L18.2775 35.6846M19.2562 8.00062H41.8004C42.1634 8.00062 42.5116 8.14483 42.7683 8.40153C43.025 8.65823 43.1692 9.00639 43.1692 9.36942V12.0386H17.8463V9.38995C17.8435 9.20497 17.8781 9.02133 17.9482 8.85012C18.0184 8.67892 18.1224 8.52369 18.2542 8.39384C18.386 8.26398 18.5427 8.16219 18.7149 8.09461C18.8872 8.02702 19.0713 7.99505 19.2562 8.00062ZM15.4167 12.1139H45.6399C46.0156 12.1139 46.3759 12.2631 46.6416 12.5288C46.9073 12.7945 47.0566 13.1548 47.0566 13.5306V16.145H14V13.5306C14 13.1548 14.1493 12.7945 14.4149 12.5288C14.6806 12.2631 15.041 12.1139 15.4167 12.1139ZM45.1266 16.1655L43.9357 27.2118H17.2577L15.93 16.1655H45.1266Z" stroke="#070707" stroke-miterlimit="10" stroke-linecap="round"/>
</svg>
