<svg width="35" height="52" viewBox="0 0 35 52" fill="none" xmlns="http://www.w3.org/2000/svg">
<path fill-rule="evenodd" clip-rule="evenodd" d="M18.8931 1.13918C18.7316 0.485039 18.1408 0 17.4368 0C16.7989 0 16.254 0.398227 16.0371 0.959649C15.9919 1.00165 15.9488 1.04689 15.9082 1.09536L0.964127 18.905C0.431625 19.5396 0.5144 20.4857 1.14901 21.0182C1.78362 21.5507 2.72976 21.468 3.26226 20.8333L15.9368 5.7284V50.5C15.9368 51.3284 16.6084 52 17.4368 52C18.2652 52 18.9368 51.3284 18.9368 50.5L18.9368 5.85832L31.5475 20.8872C32.08 21.5218 33.0262 21.6046 33.6608 21.0721C34.2954 20.5396 34.3782 19.5935 33.8457 18.9588L18.9016 1.14922C18.8988 1.14586 18.896 1.14251 18.8931 1.13918Z" fill="black"/>
</svg>
